<?xml version="1.0" encoding="UTF-8"?>
<svg width="1080px" height="1080px" viewBox="0 0 1080 1080" version="1.1" xmlns="http://www.w3.org/2000/svg" xmlns:xlink="http://www.w3.org/1999/xlink">
    <!-- Generator: Sketch 52.5 (67469) - http://www.bohemiancoding.com/sketch -->
    <title>北京</title>
    <desc>Created with Sketch.</desc>
    <defs>
        <linearGradient x1="74.4943926%" y1="50%" x2="1.42467868%" y2="50%" id="linearGradient-1">
            <stop stop-color="#9280A2" offset="0%"></stop>
            <stop stop-color="#EEA670" offset="100%"></stop>
        </linearGradient>
        <linearGradient x1="50%" y1="0%" x2="50%" y2="100%" id="linearGradient-2">
            <stop stop-color="#68B75C" offset="0%"></stop>
            <stop stop-color="#37802F" offset="100%"></stop>
        </linearGradient>
        <polygon id="path-3" points="9.12890625 0.537109375 0.298828125 209.939453 264.984375 218.677734 333.605469 763.429687 521.125 763.429687 418.332031 116.101562"></polygon>
    </defs>
    <g id="北京" stroke="none" stroke-width="1" fill="none" fill-rule="evenodd">
        <g id="Group-2" transform="translate(96.000000, 329.000000)">
            <path d="M0,0 L256,0 L256,14 C256,21.7319865 249.731986,28 242,28 L14,28 C6.2680135,28 9.46895252e-16,21.7319865 0,14 L0,0 Z" id="Rectangle-2" fill="url(#linearGradient-1)"></path>
            <rect id="Rectangle-3" fill="#6A384E" x="34" y="28" width="10" height="32"></rect>
            <rect id="Rectangle-3-Copy" fill="#6A384E" x="69" y="28" width="10" height="32"></rect>
            <rect id="Rectangle-3-Copy-2" fill="#6A384E" x="105" y="28" width="10" height="32"></rect>
            <rect id="Rectangle-3-Copy-3" fill="#6A384E" x="140" y="28" width="10" height="32"></rect>
            <rect id="Rectangle-3-Copy-4" fill="#6A384E" x="175" y="28" width="10" height="32"></rect>
            <rect id="Rectangle-3-Copy-5" fill="#6A384E" x="205" y="28" width="10" height="32"></rect>
            <rect id="Rectangle-4" fill="#E8D5B9" x="23" y="60" width="204" height="541"></rect>
            <rect id="Rectangle-5" fill="#A17C85" x="22" y="82" width="205" height="7"></rect>
            <rect id="Rectangle-5-Copy" fill="#A17C85" x="22" y="105" width="205" height="7"></rect>
            <rect id="Rectangle-5-Copy-3" fill="#A17C85" x="22" y="129" width="205" height="7"></rect>
            <rect id="Rectangle-5-Copy-2" fill="#A17C85" x="22" y="152" width="205" height="7"></rect>
            <rect id="Rectangle-5-Copy-5" fill="#A17C85" x="22" y="177" width="205" height="7"></rect>
            <rect id="Rectangle-5-Copy-4" fill="#A17C85" x="22" y="200" width="205" height="7"></rect>
            <rect id="Rectangle-5-Copy-7" fill="#A17C85" x="22" y="224" width="205" height="7"></rect>
            <rect id="Rectangle-5-Copy-6" fill="#A17C85" x="22" y="247" width="205" height="7"></rect>
            <rect id="Rectangle-5-Copy-9" fill="#A17C85" x="22" y="272" width="205" height="7"></rect>
            <rect id="Rectangle-5-Copy-8" fill="#A17C85" x="22" y="295" width="205" height="7"></rect>
            <rect id="Rectangle-5-Copy-11" fill="#A17C85" x="22" y="319" width="205" height="7"></rect>
            <rect id="Rectangle-5-Copy-10" fill="#A17C85" x="22" y="342" width="205" height="7"></rect>
            <rect id="Rectangle-5-Copy-13" fill="#A17C85" x="22" y="366" width="205" height="7"></rect>
            <rect id="Rectangle-5-Copy-12" fill="#A17C85" x="22" y="389" width="205" height="7"></rect>
            <rect id="Rectangle-5-Copy-15" fill="#A17C85" x="22" y="414" width="205" height="7"></rect>
            <rect id="Rectangle-5-Copy-14" fill="#A17C85" x="22" y="437" width="205" height="7"></rect>
            <rect id="Rectangle-5-Copy-17" fill="#A17C85" x="22" y="461" width="205" height="7"></rect>
            <rect id="Rectangle-5-Copy-16" fill="#A17C85" x="22" y="484" width="205" height="7"></rect>
            <rect id="Rectangle-5-Copy-19" fill="#A17C85" x="22" y="507" width="205" height="7"></rect>
            <rect id="Rectangle-5-Copy-18" fill="#A17C85" x="22" y="530" width="205" height="7"></rect>
            <rect id="Rectangle-5-Copy-21" fill="#A17C85" x="22" y="555" width="205" height="7"></rect>
            <rect id="Rectangle-5-Copy-20" fill="#A17C85" x="22" y="578" width="205" height="7"></rect>
        </g>
        <g id="Group-5" transform="translate(98.000000, 707.000000)">
            <circle id="Oval-2" fill="#336D2C" cx="85" cy="97" r="56"></circle>
            <path d="M85,126 L85,126 C87.209139,126 89,127.790861 89,130 L89,227 L81,227 L81,130 C81,127.790861 82.790861,126 85,126 Z" id="Rectangle-6-Copy" fill="#6E5B21"></path>
            <circle id="Combined-Shape" fill="url(#linearGradient-2)" cx="65.5" cy="65.5" r="65.5"></circle>
            <path d="M67,53 L67,53 C69.209139,53 71,54.790861 71,57 L71,227 L63,227 L63,57 C63,54.790861 64.790861,53 67,53 Z" id="Rectangle-6" fill="#6E5B21"></path>
            <path d="M66.0415088,80.1408685 L105.784859,80.1408685 C107.441713,80.1408685 108.784859,81.4840142 108.784859,83.1408685 L108.784859,84.1408685 C108.784859,85.7977227 107.441713,87.1408685 105.784859,87.1408685 L66.0415088,87.1408685 C64.3846545,87.1408685 63.0415088,85.7977227 63.0415088,84.1408685 L63.0415088,83.1408685 C63.0415088,81.4840142 64.3846545,80.1408685 66.0415088,80.1408685 Z" id="Rectangle-7" fill="#6E5B21" transform="translate(85.913184, 83.640868) rotate(-36.000000) translate(-85.913184, -83.640868) "></path>
        </g>
        <g id="Group-4" transform="translate(668.000000, 335.000000)">
            <rect id="Rectangle-11" fill="#F5A623" x="32" y="179" width="235" height="32"></rect>
            <rect id="Rectangle-11-Copy" fill="#D0B29A" x="48" y="211" width="203" height="292"></rect>
            <rect id="Rectangle-12" fill="#7A4552" x="48" y="241" width="147" height="6"></rect>
            <rect id="Rectangle-12-Copy" fill="#7A4552" x="210" y="241" width="41" height="6"></rect>
            <rect id="Rectangle-12-Copy-3" fill="#7A4552" x="48" y="279" width="147" height="6"></rect>
            <rect id="Rectangle-12-Copy-2" fill="#7A4552" x="210" y="279" width="41" height="6"></rect>
            <rect id="Rectangle-12-Copy-5" fill="#7A4552" x="48" y="317" width="147" height="6"></rect>
            <rect id="Rectangle-12-Copy-4" fill="#7A4552" x="210" y="317" width="41" height="6"></rect>
            <rect id="Rectangle-12-Copy-7" fill="#7A4552" x="48" y="356" width="147" height="6"></rect>
            <rect id="Rectangle-12-Copy-6" fill="#7A4552" x="210" y="356" width="41" height="6"></rect>
            <rect id="Rectangle-12-Copy-9" fill="#7A4552" x="48" y="393" width="147" height="6"></rect>
            <rect id="Rectangle-12-Copy-8" fill="#7A4552" x="210" y="393" width="41" height="6"></rect>
            <polygon id="Path-5" fill="#DB4176" points="149.301285 0.582321167 121.738281 109.947266 230.319336 108.554687"></polygon>
            <polygon id="Path-6" fill="#E94980" points="149.311478 0.579956055 122.361328 109.996094 65.3603516 109.996094"></polygon>
            <rect id="Rectangle-9" fill="#F2DECE" x="65" y="124" width="165" height="55"></rect>
            <rect id="Rectangle-9-Copy" fill="#EFAA6A" x="0" y="503" width="299" height="92"></rect>
            <rect id="Rectangle-10" fill="#7A4552" x="211" y="124" width="5" height="55"></rect>
            <rect id="Rectangle-10-Copy" fill="#7A4552" x="192" y="124" width="5" height="55"></rect>
            <rect id="Rectangle-10-Copy-2" fill="#7A4552" x="175" y="124" width="5" height="55"></rect>
            <rect id="Rectangle-10-Copy-3" fill="#7A4552" x="156" y="124" width="5" height="55"></rect>
            <rect id="Rectangle-10-Copy-4" fill="#7A4552" x="138" y="124" width="5" height="55"></rect>
            <rect id="Rectangle-10-Copy-5" fill="#7A4552" x="119" y="124" width="5" height="55"></rect>
            <rect id="Rectangle-10-Copy-6" fill="#7A4552" x="101" y="124" width="5" height="55"></rect>
            <rect id="Rectangle-10-Copy-7" fill="#7A4552" x="81" y="124" width="5" height="55"></rect>
            <rect id="Rectangle-8" fill="#CA7B74" x="59" y="109" width="178" height="15" rx="7.5"></rect>
        </g>
        <g id="Group" transform="translate(214.000000, 166.000000)">
            <polygon id="Path" fill="#C4BACB" points="68.4052734 102.790039 123.342773 0.60546875 115.229492 210.666016 75.7167969 288.633789 25.3359375 764.345703 0.07421875 764.345703"></polygon>
            <g id="Combined-Shape" transform="translate(114.000000, 1.000000)">
                <mask id="mask-4" fill="white">
                    <use xlink:href="#path-3"></use>
                </mask>
                <use id="Mask" fill="#C5B3D1" xlink:href="#path-3"></use>
                <path d="M482.519096,507.729764 L441.377116,556.760867 L513.62211,645.976004 C514.664802,647.263622 514.466251,649.152711 513.178633,650.195403 C511.891015,651.238095 510.001926,651.039544 508.959234,649.751927 L437.448205,561.44316 L385.283832,623.610239 L501.172352,766.720643 C502.215045,768.00826 502.016493,769.897349 500.728876,770.940042 C499.441258,771.982734 497.552169,771.784182 496.509477,770.496565 L381.354922,628.292532 L329.862838,689.658408 L405.520671,776.692789 C406.607665,777.943233 406.475163,779.838101 405.224719,780.925095 C403.974275,782.012089 402.079408,781.879587 400.992413,780.629144 L325.958037,694.311968 L317.524629,704.362512 C316.459624,705.631736 314.567357,705.797288 313.298133,704.732283 C312.028909,703.667277 311.863357,701.77501 312.928363,700.505786 L321.972616,689.727265 L286.053726,648.407309 C284.966732,647.156865 285.099234,645.261997 286.349678,644.175003 C287.600122,643.088009 289.49499,643.220511 290.581984,644.470955 L325.877416,685.073706 L377.508326,623.542383 L343.888658,582.02555 L307.524629,625.362512 C306.459624,626.631736 304.567357,626.797288 303.298133,625.732283 C302.028909,624.667277 301.863357,622.77501 302.928363,621.505786 L340.042063,577.275401 L301.477308,529.651894 L297.524629,534.362512 C296.459624,535.631736 294.567357,535.797288 293.298133,534.732283 C292.028909,533.667277 291.863357,531.77501 292.928363,530.505786 L353.723996,458.052372 L321.120613,417.790547 L295.524629,448.294652 C294.459624,449.563876 292.567357,449.729428 291.298133,448.664422 C290.028909,447.599417 289.863357,445.70715 290.928363,444.437926 L317.274017,413.040398 L280.887961,368.10736 C279.845269,366.819743 280.04382,364.930653 281.331438,363.887961 C282.619055,362.845269 284.508145,363.04382 285.550837,364.331438 L321.202928,408.358104 L363.81416,357.576016 L329.048457,313.077946 L288.133054,361.839025 C287.068049,363.108249 285.175782,363.273801 283.906558,362.208796 C282.637334,361.14379 282.471782,359.251523 283.536787,357.982299 L325.271963,308.244254 L293.619126,267.73047 L275.524629,289.294652 C274.459624,290.563876 272.567357,290.729428 271.298133,289.664422 C270.028909,288.599417 269.863357,286.70715 270.928363,285.437926 L289.842632,262.896778 L263.182831,228.773789 C262.16277,227.46817 262.39426,225.582834 263.699879,224.562773 C265.005498,223.542711 266.890834,223.774201 267.910896,225.07982 L293.785519,258.197828 L412.853501,116.298133 C413.918506,115.028909 415.810773,114.863357 417.079997,115.928363 C418.349221,116.993368 418.514773,118.885635 417.449767,120.154859 L297.562013,263.03152 L329.21485,303.545304 L425.461925,188.842507 C426.52693,187.573283 428.419197,187.407731 429.688421,188.472736 C430.957645,189.537742 431.123197,191.430008 430.058192,192.699232 L332.991344,308.378996 L367.757047,352.877066 L440.278143,266.449789 C441.343148,265.180565 443.235415,265.015013 444.504639,266.080019 C445.773863,267.145024 445.939415,269.037291 444.87441,270.306515 L371.533541,357.710758 L403.542756,398.680686 L452.386235,340.471294 C453.451241,339.20207 455.343508,339.036518 456.612732,340.101523 C457.881956,341.166529 458.047508,343.058796 456.982502,344.32802 L407.319251,403.514378 L445.181197,451.97546 L466.642378,426.39902 C467.707384,425.129796 469.599651,424.964244 470.868875,426.02925 C472.138099,427.094255 472.30365,428.986522 471.238645,430.255746 L448.957692,456.809152 L484.954958,502.883552 C485.975019,504.189171 485.743529,506.074507 484.43791,507.094569 C483.868597,507.539365 483.189058,507.746193 482.519096,507.729764 Z M478.021784,503.755109 L445.014805,461.508102 L403.910853,510.493885 L437.530521,552.010717 L478.021784,503.755109 Z M441.23831,456.67441 L403.376363,408.213328 L361.499502,458.120228 L400.064257,505.743735 L441.23831,456.67441 Z M399.599869,403.379636 L367.590654,362.409708 L325.049523,413.108253 L357.652907,453.370079 L399.599869,403.379636 Z M357.570591,462.802522 L305.406218,524.9696 L343.970974,572.593107 L396.135347,510.426029 L357.570591,462.802522 Z M399.981942,515.176178 L347.817569,577.343257 L381.437237,618.860089 L433.60161,556.693011 L399.981942,515.176178 Z M118.505859,30.5302734 L125.029297,31.8349609 L0.364257812,182.858398 L-0.891601562,174.317383 L118.505859,30.5302734 Z M173.723633,45.9169922 L180.754883,47.7998047 L44.8930664,211.593262 L36.8984375,211.593262 L173.723633,45.9169922 Z M232.40918,63.0488281 L238.005859,64.4033203 L114.947266,213.859619 L106.745361,213.859619 L232.40918,63.0488281 Z M293.21582,79.4921875 L299.632812,81.4082031 L188.803711,216.231445 L181.013672,216.231445 L293.21582,79.4921875 Z M223.928363,260.437926 L365.853501,91.2981333 C366.918506,90.0289093 368.810773,89.8633574 370.079997,90.9283628 C371.349221,91.9933682 371.514773,93.885635 370.449767,95.154859 L228.524629,264.294652 C227.459624,265.563876 225.567357,265.729428 224.298133,264.664422 C223.028909,263.599417 222.863357,261.70715 223.928363,260.437926 Z" fill="#7A4552" mask="url(#mask-4)"></path>
            </g>
            <polygon id="Path-3" fill="#9286AA" points="75.5664062 288.863281 114.146484 210.980469 380.449585 219.778809 329.816406 263.161133 217.703125 254.388672 186.705078 292.623047"></polygon>
            <path d="M75.1972656,288.739258 L24.7207031,764.650391 L447.626953,764.650391 L380.404297,219.739014 L329.568359,263.208984 C363.458984,502.166016 380.404297,621.644531 380.404297,621.644531 C380.404297,621.644531 366.96875,625.647786 340.097656,633.654297 L149.029297,633.654297 L187.232422,292.415039 L75.1972656,288.739258 Z" id="Path-4" fill="#978DAA"></path>
            <polygon id="Path-13" fill="#7A4552" points="76.6958008 286 74 288.411133 74 291.748047 186.432617 296.0625 188.175781 291.03125"></polygon>
            <polygon id="Path-2" fill="#7A4552" opacity="0.853013393" points="373.322266 219.376221 327.464355 262.847656 329.551758 263.207764 329.886719 264.358887 380.499268 220.443115 380.415344 219.740662"></polygon>
        </g>
        <g id="Group-3" transform="translate(819.000000, 705.000000)">
            <circle id="Oval-2" fill="#336D2C" cx="84" cy="99" r="56"></circle>
            <path d="M84,128 L84,128 C86.209139,128 88,129.790861 88,132 L88,229 L80,229 L80,132 C80,129.790861 81.790861,128 84,128 Z" id="Rectangle-6-Copy" fill="#6E5B21"></path>
            <ellipse id="Combined-Shape-Copy" fill="url(#linearGradient-2)" cx="65.5" cy="66.5" rx="65.5" ry="66.5"></ellipse>
            <path d="M67,55 L67,55 C69.209139,55 71,56.790861 71,59 L71,229 L63,229 L63,59 C63,56.790861 64.790861,55 67,55 Z" id="Rectangle-6-Copy-2" fill="#6E5B21"></path>
            <path d="M66.0415088,82.1408685 L105.784859,82.1408685 C107.441713,82.1408685 108.784859,83.4840142 108.784859,85.1408685 L108.784859,86.1408685 C108.784859,87.7977227 107.441713,89.1408685 105.784859,89.1408685 L66.0415088,89.1408685 C64.3846545,89.1408685 63.0415088,87.7977227 63.0415088,86.1408685 L63.0415088,85.1408685 C63.0415088,83.4840142 64.3846545,82.1408685 66.0415088,82.1408685 Z" id="Rectangle-7-Copy" fill="#6E5B21" transform="translate(85.913184, 85.640868) rotate(-36.000000) translate(-85.913184, -85.640868) "></path>
        </g>
        <path d="M336.514313,250.891646 L394.080566,182.050781 L400.02832,183.966309 L335.89674,261.65992 L329.353516,375.750488 C328.561849,378.049967 327.627604,379.199707 326.550781,379.199707 C325.473958,379.199707 324.507487,378.389648 323.651367,376.769531 L336.308594,166.572754 C336.308594,166.572754 337.115885,166.572754 338.730469,166.572754 C340.345052,166.572754 341.218262,166.572754 341.350098,166.572754 L336.514313,250.891646 Z" id="Combined-Shape" fill="#7A4552"></path>
        <rect id="Rectangle" fill="#63577E" x="78" y="930" width="898" height="31"></rect>
    </g>
</svg>