<?xml version="1.0" encoding="utf-8"?>
<!-- Generator: Adobe Illustrator 21.0.0, SVG Export Plug-In . SVG Version: 6.00 Build 0)  -->
<svg version="1.1" id="图层_1" xmlns="http://www.w3.org/2000/svg" xmlns:xlink="http://www.w3.org/1999/xlink" x="0px" y="0px"
	 viewBox="0 0 1024 1024" style="enable-background:new 0 0 1024 1024;" xml:space="preserve">
<style type="text/css">
	.st0{fill:#70F3FF;}
	.st1{fill:#4B5CC4;}
</style>
<g>
	<g>
		<path class="st0" d="M509.4,237.8h5.2l2.8-14.1c0.3-1.6-0.1-3.3-1.1-4.6c-2.1-2.6-6.4-2.6-8.5,0c-1.1,1.3-1.5,3-1.1,4.6
			L509.4,237.8z"/>
		<path class="st0" d="M339.2,473.6c26.3-14.2,82.2-27.1,159-27.1c109,0,175.9,26.1,175.9,44.8c0,2.3-1.1,4.8-3.1,7.3
			c4-2.2,7.3-4.4,10-6.6c-0.2,4.2-2.2,8.3-5.8,12.2c12.6-7,19.6-14.9,19.6-23.3c0-28.6-81.8-51.7-182.8-51.7
			c-85.1,0-156.7,16.5-177,38.8c0,0,0,0,0,0c-3.6,3.9-5.5,8-5.7,12.1C331.9,478,335.2,475.8,339.2,473.6L339.2,473.6z"/>
		<path class="st0" d="M514,336.2c73.3,4.3,133,26.5,143.4,51.6c0.4-0.7,0.8-1.4,1.1-2.1c1.2-2.7,1.8-5.4,1.8-8.1
			c0-28.6-66.4-51.7-148.3-51.7c-77.7,0-141.4,20.8-147.7,47.4C374.3,347.9,438,331.7,514,336.2z"/>
		<path class="st0" d="M512,539.6c-120,0-217.3,23.2-217.3,51.7c0,3.5,1.5,7,4.3,10.3c20.2-23.6,107.8-41.4,212.9-41.4
			s192.8,17.8,212.9,41.4c2.8-3.3,4.3-6.8,4.3-10.3C729.3,562.8,632,539.6,512,539.6z"/>
		<rect x="336.1" y="705.1" class="st0" width="351.8" height="6.9"/>
		<rect x="602.1" y="391.3" class="st0" width="2.6" height="31"/>
		<rect x="591.8" y="391.3" class="st0" width="2.6" height="31"/>
		<rect x="446.9" y="494.8" class="st0" width="2.6" height="31"/>
		<rect x="436.6" y="494.8" class="st0" width="2.6" height="31"/>
	</g>
	<g>
		<path class="st1" d="M267.1,267.1c1.9,0,3.4-1.5,3.4-3.4c0-15.2-12.4-27.6-27.6-27.6s-27.6,12.4-27.6,27.6c0,1.9,1.5,3.4,3.4,3.4
			c1.9,0,3.4-1.5,3.4-3.4c0-11.4,9.3-20.7,20.7-20.7s20.7,9.3,20.7,20.7C263.7,265.6,265.2,267.1,267.1,267.1z"/>
		<path class="st1" d="M301.6,274c0-1.9-1.5-3.4-3.4-3.4h-34.5c-1.9,0-3.4,1.5-3.4,3.4c0,1.9,1.5,3.4,3.4,3.4h34.5
			C300.1,277.5,301.6,275.9,301.6,274z"/>
		<path class="st1" d="M308.5,284.4h-20.7c-1.9,0-3.4,1.5-3.4,3.4c0,1.9,1.5,3.4,3.4,3.4h20.7c1.9,0,3.4-1.5,3.4-3.4
			C312,285.9,310.4,284.4,308.5,284.4z"/>
		<path class="st1" d="M774.1,284.4c0,1.9,1.5,3.4,3.4,3.4h34.5c1.9,0,3.4-1.5,3.4-3.4c0-1.9-1.5-3.4-3.4-3.4h-31.3
			c-1.7-13.6-13.3-24.1-27.4-24.1c-10.4,0-19.9,5.8-24.6,15.1c-1.5,2.9-2.4,5.9-2.8,9h-10.6c-1.9,0-3.4,1.5-3.4,3.4
			c0,1.9,1.5,3.4,3.4,3.4h13.8c1.9,0,3.4-1.5,3.4-3.4c0-3.3,0.7-6.4,2.2-9.3c3.6-7,10.6-11.3,18.5-11.3
			C764.8,263.7,774.1,273,774.1,284.4z"/>
		<path class="st1" d="M843.1,349.9c-5,0-9.6,2.2-12.9,5.8c-4.4-9.5-13.9-16.1-25.1-16.1c-10.4,0-19.9,5.8-24.6,15.1
			c-1.5,2.9-2.4,5.9-2.8,9h-10.6c-1.9,0-3.4,1.5-3.4,3.4c0,1.9,1.5,3.4,3.4,3.4H781c1.9,0,3.4-1.5,3.4-3.4c0-3.3,0.7-6.4,2.2-9.3
			c3.6-7,10.6-11.3,18.5-11.3c11.4,0,20.7,9.3,20.7,20.7c0,1.9,1.5,3.4,3.4,3.4s3.4-1.5,3.4-3.4c0-1.6,0.4-3.2,1.1-4.7
			c1.8-3.5,5.3-5.7,9.2-5.7c5.7,0,10.3,4.6,10.3,10.3c0,1.9,1.5,3.4,3.4,3.4s3.4-1.5,3.4-3.4C860.3,357.6,852.6,349.9,843.1,349.9z"
			/>
		<circle class="st1" cx="756.9" cy="367.1" r="3.4"/>
	</g>
	<path class="st0" d="M336.1,481c0-2.3,1-4.8,3.1-7.3c-4,2.1-7.3,4.3-10,6.5c0,0.3,0,0.5,0,0.8c0,12.5,15.5,23.9,41.4,32.8v-7.4
		C348.2,498.2,336.1,489,336.1,481z"/>
	<path class="st1" d="M392.6,353.7c-3.7,1.8-7.1,3.6-10.1,5.5C383.6,358.6,387.3,356.6,392.6,353.7L392.6,353.7z"/>
	<path class="st1" d="M631.4,353.7c5.2,2.9,9,4.9,10.1,5.5C638.5,357.3,635.1,355.5,631.4,353.7L631.4,353.7z"/>
	<g>
		<path class="st1" d="M887.3,808.6l-64.9-110.4H687.9v-76.6c26-8.5,41.4-19,41.4-30.3c0-15.7-29.5-29.8-75.9-39.3v-38.3
			c25.9-8.9,41.4-20.3,41.4-32.8c0-17.3-29.9-32.5-75.9-41.9v-25.7c25.6-9.3,41.4-21.9,41.4-35.8c0-17.2-24-32.4-60.9-41.8
			c-14.9-8.7-29.8-17.8-37.2-23.8c-8.4-6.7-29.5-31.1-29.5-31.1v-10.2c0-7.7-4.2-14.3-10.3-17.9V243l3.5-17.6
			c1.8-8.7-4.9-16.9-13.9-16.9c-8.9,0-15.6,8.2-13.9,16.9l3.5,17.6v9.7c-6.2,3.6-10.3,10.2-10.3,17.9v10.2c0,0-21.1,24.4-29.5,31.1
			c-7.5,6-22.3,15.1-37.2,23.7c-36.9,9.4-60.9,24.6-60.9,41.8c0,13.9,15.8,26.6,41.4,35.8V439c-45.9,9.4-75.9,24.7-75.9,41.9
			c0,12.5,15.5,23.9,41.4,32.8v38.3c-46.4,9.5-75.9,23.6-75.9,39.3c0,11.3,15.3,21.8,41.4,30.3v76.6H201.6l-64.9,110.4h-73v6.9h69
			h296.6h165.5h296.6h69v-6.9H887.3z M466.1,317.4c8.8-7,29.5-31,30.4-32c1.1-1.3,1.7-2.9,1.7-4.5v-10.2c0-4.9,2.6-9.5,6.9-11.9
			c2.1-1.2,3.4-3.5,3.4-6V243c0-0.5,0-0.9-0.1-1.4l-3.5-17.6c-0.4-2.1,0.1-4.3,1.5-6c1.4-1.7,3.4-2.7,5.6-2.7s4.2,1,5.6,2.7
			c1.4,1.7,1.9,3.9,1.5,6l-3.5,17.6c-0.1,0.4-0.1,0.9-0.1,1.4v9.7c0,2.5,1.3,4.7,3.4,6c4.3,2.5,6.9,7.1,6.9,11.9v10.2
			c0,1.7,0.6,3.3,1.7,4.5c0.9,1,21.6,25,30.4,32c4.6,3.7,11.9,8.5,20.3,13.7c-13.5-2.3-28.1-3.9-43.2-4.7c-0.4,0-0.8,0-1.2-0.1
			c-2-0.1-3.9-0.2-5.9-0.3c-1.2,0-2.4-0.1-3.6-0.1c-1.4,0-2.7-0.1-4.1-0.1c-2.7-0.1-5.4-0.1-8.1-0.1s-5.4,0-8.1,0.1
			c-1.4,0-2.8,0.1-4.1,0.1c-1.2,0-2.4,0.1-3.5,0.1c-2,0.1-4,0.2-6,0.3c-0.4,0-0.8,0-1.2,0.1c-15.1,0.8-29.6,2.4-43.2,4.7
			C454.2,325.9,461.5,321.1,466.1,317.4z M370.6,377.5c0-16.6,35.4-34.6,90.7-41.7c0.4-0.1,0.8-0.1,1.2-0.1c2.4-0.3,4.9-0.6,7.4-0.8
			c2-0.2,4-0.4,6.1-0.6c0.7-0.1,1.5-0.1,2.2-0.2c2-0.2,4-0.3,6-0.4c0.8-0.1,1.6-0.1,2.4-0.1c2-0.1,4-0.2,6-0.3
			c0.8,0,1.6-0.1,2.5-0.1c2.1-0.1,4.1-0.1,6.2-0.2c0.8,0,1.5,0,2.3-0.1c2.8-0.1,5.7-0.1,8.5-0.1s5.7,0,8.5,0.1c0.8,0,1.5,0,2.3,0.1
			c2.1,0.1,4.2,0.1,6.2,0.2c0.8,0,1.6,0.1,2.4,0.1c2,0.1,4,0.2,6,0.3c0.8,0,1.6,0.1,2.3,0.1c2,0.1,4,0.3,6,0.4
			c0.7,0.1,1.4,0.1,2.2,0.2c2.1,0.2,4.1,0.4,6.1,0.6c2.4,0.2,4.7,0.5,7,0.8c0.5,0.1,1.1,0.1,1.6,0.2c55.2,7.1,90.7,25.1,90.7,41.7
			c0,9.9-12.6,20.3-34.5,28.6V379c-20.3-8.6-49.4-14.8-82.8-17.4v-22h-48.3v20.9c-31.5,0.9-60.1,5.1-82.8,11.5v34.1
			C383.2,397.8,370.6,387.4,370.6,377.5z M536.1,401.6v-33.1c2.3,0.2,4.6,0.4,6.9,0.6V430c-0.3,0-0.6,0-1,0
			c-2.2-0.1-4.4-0.2-6.6-0.3c-2.6-0.1-5.1-0.2-7.7-0.2c-1.3,0-2.6-0.1-3.9-0.1c-3.9-0.1-7.8-0.1-11.8-0.1c-5.1,0-10.2,0.1-15.2,0.2
			c-0.3,0-0.5,0-0.8,0c-5.1,0.1-10.1,0.3-15.1,0.6v-62.3c2.3-0.1,4.6-0.2,6.9-0.3v34.2H536.1z M494.8,394.7v-48.3h34.5v48.3H494.8z
			 M549.9,369.8c9.6,1.1,18.9,2.5,27.6,4.2v58.6c-6.1-0.7-12.3-1.3-18.7-1.7c-0.8-0.1-1.6-0.1-2.4-0.2c-2.2-0.2-4.4-0.3-6.6-0.4
			V369.8z M584.4,375.5c10.1,2.3,19.4,5,27.6,8.1v54c-1-0.2-2.1-0.4-3.2-0.5c-1.3-0.2-2.6-0.5-3.9-0.7c-6.6-1.1-13.5-2.1-20.5-3
			V375.5z M474.1,368v62.3c-0.7,0-1.3,0.1-2,0.1c-2.9,0.2-5.8,0.4-8.7,0.6c-1.8,0.1-3.6,0.3-5.4,0.4c-2.3,0.2-4.5,0.4-6.8,0.6
			c-1.5,0.2-3.1,0.3-4.6,0.4v-61.9C455.4,369.5,464.6,368.6,474.1,368z M439.6,371.7v61.8c-0.5,0.1-0.9,0.1-1.4,0.2
			c-3.6,0.4-7.1,0.9-10.6,1.4c-1.2,0.2-2.3,0.3-3.5,0.5c-3.4,0.5-6.7,1.1-10,1.7c-0.7,0.1-1.5,0.2-2.2,0.4v-60.4
			C420.5,375,429.8,373.2,439.6,371.7z M336.1,481c0-11.6,25.5-25.9,70.7-35.2c2.7-0.5,5.4-1.1,8.2-1.6c1.1-0.2,2.2-0.4,3.2-0.6
			c2.4-0.4,4.9-0.8,7.4-1.2c1.2-0.2,2.4-0.4,3.6-0.6c3.2-0.5,6.5-0.9,9.9-1.4c1-0.1,2.1-0.2,3.1-0.4c2.9-0.3,5.8-0.7,8.8-1
			c1-0.1,2.1-0.2,3.1-0.3c3.7-0.4,7.6-0.7,11.5-1c1-0.1,2.1-0.1,3.2-0.2c3.6-0.2,7.2-0.5,11-0.7c0.7,0,1.3-0.1,2-0.1
			c4.3-0.2,8.6-0.3,13-0.5c1.1,0,2.1,0,3.2-0.1c4.6-0.1,9.2-0.2,13.9-0.2c4.7,0,9.4,0.1,13.9,0.2c1.1,0,2.1,0,3.2,0.1
			c4.4,0.1,8.8,0.3,13,0.5c0.7,0,1.3,0.1,2,0.1c3.7,0.2,7.4,0.4,11,0.7c1.1,0.1,2.1,0.1,3.2,0.2c3.9,0.3,7.7,0.6,11.5,1
			c1.1,0.1,2.1,0.2,3.1,0.3c3,0.3,5.9,0.6,8.8,1c1,0.1,2.1,0.2,3.1,0.4c3.4,0.4,6.7,0.9,9.9,1.4c1.2,0.2,2.4,0.4,3.6,0.6
			c2.5,0.4,5,0.8,7.4,1.2c1.1,0.2,2.2,0.4,3.2,0.6c2.8,0.5,5.5,1,8.2,1.6c45.1,9.3,70.7,23.7,70.7,35.2c0,8-12.1,17.3-34.5,25.3V492
			c-32.8-12.9-88.5-21.4-151.7-21.4c-51.4,0-97.8,5.6-131.1,14.6v21.1C348.2,498.2,336.1,489,336.1,481z M646.5,496.8v53.8
			c-12.9-2.4-26.8-4.4-41.4-6v-58.4C620.8,489,634.9,492.6,646.5,496.8z M598.2,484.9v58.9c-3.8-0.4-7.6-0.7-11.5-1.1
			c-10.7-0.9-21.9-1.7-33.3-2.2v-61C569.3,480.7,584.3,482.6,598.2,484.9z M546.5,479v61.2c-5.3-0.2-10.6-0.3-16-0.5
			c-0.8,0-1.7,0-2.5,0c-5.3-0.1-10.6-0.2-16-0.2c-5.4,0-10.7,0.1-16,0.2c-0.8,0-1.7,0-2.5,0c-5.4,0.1-10.8,0.3-16,0.5v-62.3
			c7.9-0.3,16-0.4,24.1-0.4C517,477.5,532,478,546.5,479z M470.6,478.2v62.3c-11.5,0.5-22.6,1.3-33.3,2.2c-3.9,0.3-7.7,0.7-11.5,1.1
			v-61.9C440,480.2,455,478.9,470.6,478.2z M418.9,482.8v61.8c-14.6,1.6-28.5,3.6-41.4,6v-60C390,487.4,403.9,484.8,418.9,482.8z
			 M301.6,591.3c0-7.4,15.3-19.6,58.4-29.9c22.6-5.4,49.4-9.4,78.7-11.9c0.5,0,1.1-0.1,1.6-0.1c2.5-0.2,5-0.4,7.5-0.6
			c1-0.1,2-0.1,3-0.2c2.1-0.1,4.2-0.3,6.4-0.4c1.2-0.1,2.5-0.2,3.8-0.2c1.9-0.1,3.9-0.2,5.9-0.3c1.4-0.1,2.8-0.1,4.2-0.2
			c1.9-0.1,3.8-0.2,5.8-0.2c1.4-0.1,2.9-0.1,4.3-0.2c2-0.1,4-0.1,6.1-0.2c1.4,0,2.7-0.1,4.1-0.1c2.3-0.1,4.6-0.1,6.9-0.1
			c1.1,0,2.2,0,3.4-0.1c3.5,0,6.9-0.1,10.4-0.1c3.5,0,7,0,10.4,0.1c1.1,0,2.3,0,3.4,0.1c2.3,0,4.6,0.1,6.9,0.1
			c1.4,0,2.7,0.1,4.1,0.1c2,0.1,4.1,0.1,6.1,0.2c1.5,0,2.9,0.1,4.3,0.2c1.9,0.1,3.8,0.1,5.8,0.2c1.4,0.1,2.8,0.1,4.2,0.2
			c2,0.1,3.9,0.2,5.9,0.3c1.3,0.1,2.5,0.2,3.8,0.2c2.1,0.1,4.3,0.3,6.4,0.4c1,0.1,2,0.1,3,0.2c2.5,0.2,5,0.4,7.5,0.6
			c0.5,0,1.1,0.1,1.6,0.1c29.3,2.5,56.1,6.5,78.7,11.9c43.1,10.2,58.4,22.5,58.4,29.9c0,5.8-9.4,14.6-34.5,23.1v-6.6
			c-39.5-12.1-103.6-19.9-175.9-19.9s-136.4,7.9-175.9,19.9v6.6C311.1,605.9,301.6,597.1,301.6,591.3z M681,613v85.3h-27.6v-91.7
			C663.4,608.5,672.7,610.6,681,613z M587.9,643.1v55.2h-17.2V596.6c27.6,1.7,53.5,4.7,75.9,8.7v93h-17.2v-55.2H587.9z M622.4,650
			v48.3h-27.6V650H622.4z M567.2,753.4H456.8v-20.7h3.4h103.5h3.4V753.4z M574.1,760.3h3.4V781H446.5v-20.7h3.4H574.1z M543,705.1
			h13.8v20.7h-89.7v-20.7H481H543z M487.9,698.2v-62.1h48.3v62.1H487.9z M543,698.2v-69H481v69h-20.7v-102
			c16.8-0.9,34.1-1.4,51.7-1.4c17.6,0,35,0.5,51.7,1.4v102H543z M394.7,643.1v55.2h-17.2v-93c22.4-4,48.2-6.9,75.9-8.7v101.6h-17.2
			v-55.2H394.7z M429.2,650v48.3h-27.6V650H429.2z M370.6,606.6v91.7H343V613C351.3,610.6,360.6,608.5,370.6,606.6z M429.2,808.6
			H144.7l60.9-103.5h130.6h34.5h6.9h17.2h41.4h17.2h6.9v20.7h-10.3v27.6h-10.3V781h-10.3V808.6z M587.9,808.6H436.1v-20.7h3.4h144.9
			h3.4V808.6z M594.8,808.6V781h-10.3v-27.6h-10.3v-27.6h-10.3v-20.7h6.9h17.2h41.4h17.2h6.9h34.5h130.6l28.4,48.3h-45.2
			c-1.9,0-3.4,1.5-3.4,3.4s1.5,3.4,3.4,3.4H850c0.3,0,0.6-0.1,0.8-0.2l28.5,48.5H594.8z"/>
		<path class="st1" d="M325.8,732.7c1.9,0,3.4-1.5,3.4-3.4c0-1.9-1.5-3.4-3.4-3.4H222.3c-1.9,0-3.4,1.5-3.4,3.4
			c0,1.9,1.5,3.4,3.4,3.4H325.8z"/>
		<path class="st1" d="M422.3,725.8h-62.1c-1.9,0-3.4,1.5-3.4,3.4c0,1.9,1.5,3.4,3.4,3.4h62.1c1.9,0,3.4-1.5,3.4-3.4
			C425.8,727.4,424.2,725.8,422.3,725.8z"/>
		<path class="st1" d="M339.6,732.7h6.9c1.9,0,3.4-1.5,3.4-3.4c0-1.9-1.5-3.4-3.4-3.4h-6.9c-1.9,0-3.4,1.5-3.4,3.4
			C336.1,731.2,337.7,732.7,339.6,732.7z"/>
		<path class="st1" d="M732.7,781h-13.8c-1.9,0-3.4,1.5-3.4,3.4c0,1.9,1.5,3.4,3.4,3.4h13.8c1.9,0,3.4-1.5,3.4-3.4
			C736.2,782.6,734.6,781,732.7,781z"/>
		<path class="st1" d="M746.5,781h-3.4c-1.9,0-3.4,1.5-3.4,3.4c0,1.9,1.5,3.4,3.4,3.4h3.4c1.9,0,3.4-1.5,3.4-3.4
			C750,782.6,748.4,781,746.5,781z"/>
		<path class="st1" d="M822.4,781h-65.5c-1.9,0-3.4,1.5-3.4,3.4c0,1.9,1.5,3.4,3.4,3.4h65.5c1.9,0,3.4-1.5,3.4-3.4
			C825.8,782.6,824.3,781,822.4,781z"/>
		<path class="st1" d="M398.2,753.4h-89.7c-1.9,0-3.4,1.5-3.4,3.4s1.5,3.4,3.4,3.4h89.7c1.9,0,3.4-1.5,3.4-3.4
			S400.1,753.4,398.2,753.4z"/>
		<path class="st1" d="M211.9,781h-10.3c-1.9,0-3.4,1.5-3.4,3.4c0,1.9,1.5,3.4,3.4,3.4h10.3c1.9,0,3.4-1.5,3.4-3.4
			C215.4,782.6,213.9,781,211.9,781z"/>
		<path class="st1" d="M318.9,781h-93.1c-1.9,0-3.4,1.5-3.4,3.4c0,1.9,1.5,3.4,3.4,3.4h93.1c1.9,0,3.4-1.5,3.4-3.4
			C322.3,782.6,320.8,781,318.9,781z"/>
		<path class="st1" d="M387.8,781h-55.2c-1.9,0-3.4,1.5-3.4,3.4c0,1.9,1.5,3.4,3.4,3.4h55.2c1.9,0,3.4-1.5,3.4-3.4
			C391.3,782.6,389.7,781,387.8,781z"/>
		<path class="st1" d="M280.9,753.4c-1.9,0-3.4,1.5-3.4,3.4s1.5,3.4,3.4,3.4h13.8c1.9,0,3.4-1.5,3.4-3.4s-1.5-3.4-3.4-3.4H280.9z"/>
		<path class="st1" d="M681,732.7h72.4c1.9,0,3.4-1.5,3.4-3.4c0-1.9-1.5-3.4-3.4-3.4H681c-1.9,0-3.4,1.5-3.4,3.4
			C677.5,731.2,679.1,732.7,681,732.7z"/>
		<path class="st1" d="M618.9,753.4h-3.4c-1.9,0-3.4,1.5-3.4,3.4s1.5,3.4,3.4,3.4h3.4c1.9,0,3.4-1.5,3.4-3.4
			S620.8,753.4,618.9,753.4z"/>
		<path class="st1" d="M660.3,756.9c0-1.9-1.5-3.4-3.4-3.4h-24.1c-1.9,0-3.4,1.5-3.4,3.4s1.5,3.4,3.4,3.4h24.1
			C658.8,760.3,660.3,758.8,660.3,756.9z"/>
		<path class="st1" d="M663.8,756.9c0,1.9,1.5,3.4,3.4,3.4h120.7c1.9,0,3.4-1.5,3.4-3.4s-1.5-3.4-3.4-3.4H667.2
			C665.3,753.4,663.8,755,663.8,756.9z"/>
		<path class="st1" d="M691.3,781h-37.9c-1.9,0-3.4,1.5-3.4,3.4c0,1.9,1.5,3.4,3.4,3.4h37.9c1.9,0,3.4-1.5,3.4-3.4
			C694.8,782.6,693.2,781,691.3,781z"/>
		<path class="st1" d="M656.9,732.7h10.3c1.9,0,3.4-1.5,3.4-3.4c0-1.9-1.5-3.4-3.4-3.4h-10.3c-1.9,0-3.4,1.5-3.4,3.4
			C653.4,731.2,654.9,732.7,656.9,732.7z"/>
		<path class="st1" d="M646.5,729.3c0-1.9-1.5-3.4-3.4-3.4h-44.8c-1.9,0-3.4,1.5-3.4,3.4c0,1.9,1.5,3.4,3.4,3.4h44.8
			C645,732.7,646.5,731.2,646.5,729.3z"/>
		<path class="st1" d="M498.2,387.8h27.6v-34.5h-27.6V387.8z M505.1,360.3h13.8v20.7h-13.8V360.3z"/>
	</g>
</g>
</svg>
