<?xml version="1.0" encoding="utf-8"?>
<!-- Generator: Adobe Illustrator 21.0.0, SVG Export Plug-In . SVG Version: 6.00 Build 0)  -->
<svg version="1.1" id="图层_1" xmlns="http://www.w3.org/2000/svg" xmlns:xlink="http://www.w3.org/1999/xlink" x="0px" y="0px"
	 viewBox="0 0 1024 1024" style="enable-background:new 0 0 1024 1024;" xml:space="preserve">
<style type="text/css">
	.st0{fill:#70F3FF;}
	.st1{fill:#4B5CC4;}
</style>
<g>
	<g>
		<path class="st0" d="M493.8,768.6l0.5,4.9c-23.7,7.5-41,29.7-41,55.9V927h-4.9v-97.7C448.5,800.6,467.6,776.4,493.8,768.6z"/>
	</g>
	<g>
		<path class="st0" d="M575.5,829.4V927h-4.9v-97.7c0-16.2-6.5-30.9-17.1-41.5c-6.6-6.6-14.7-11.6-23.8-14.5l0.5-4.9
			c10.3,3.1,19.4,8.6,26.7,16C568.3,796,575.5,811.8,575.5,829.4z"/>
	</g>
	<g>
		<rect x="389.9" y="458.3" class="st0" width="244.1" height="19.5"/>
	</g>
	<g>
		<rect x="72.6" y="917.3" class="st1" width="878.9" height="9.8"/>
	</g>
	<g>
		<path class="st1" d="M844,214.2c-2.7,0-4.9-2.2-4.9-4.9c0-16.2-13.1-29.3-29.3-29.3c-16.2,0-29.3,13.1-29.3,29.3
			c0,2.7-2.2,4.9-4.9,4.9s-4.9-2.2-4.9-4.9c0-21.5,17.5-39.1,39.1-39.1c21.5,0,39.1,17.5,39.1,39.1C848.9,212,846.7,214.2,844,214.2
			z"/>
	</g>
	<g>
		<g>
			<path d="M839.1,226.4c-1.3,0-2.4-1.1-2.4-2.4c0-1.3,1.1-2.4,2.4-2.4H888c1.3,0,2.4,1.1,2.4,2.4c0,1.3-1.1,2.4-2.4,2.4H839.1z"/>
		</g>
		<g>
			<path class="st1" d="M888,219h-48.8c-2.7,0-4.9,2.2-4.9,4.9c0,2.7,2.2,4.9,4.9,4.9H888c2.7,0,4.9-2.2,4.9-4.9
				C892.9,221.2,890.7,219,888,219L888,219z"/>
		</g>
	</g>
	<g>
		<g>
			<path d="M873.3,245.9c-1.3,0-2.4-1.1-2.4-2.4s1.1-2.4,2.4-2.4h29.3c1.3,0,2.4,1.1,2.4,2.4s-1.1,2.4-2.4,2.4H873.3z"/>
		</g>
		<g>
			<path class="st1" d="M902.6,238.6h-29.3c-2.7,0-4.9,2.2-4.9,4.9s2.2,4.9,4.9,4.9h29.3c2.7,0,4.9-2.2,4.9-4.9
				S905.3,238.6,902.6,238.6L902.6,238.6z"/>
		</g>
	</g>
	<g>
		<g>
			<path class="st1" d="M214.2,140.9c-2.7,0-4.9-2.2-4.9-4.9c0-16.2-13.1-29.3-29.3-29.3c-11.1,0-21.1,6.2-26.1,16.1
				c-2.1,4.1-3.2,8.6-3.2,13.2c0,2.7-2.2,4.9-4.9,4.9c-2.7,0-4.9-2.2-4.9-4.9c0-6.2,1.4-12.2,4.2-17.7C151.8,105.2,165.2,97,180,97
				c21.5,0,39.1,17.5,39.1,39.1C219,138.7,216.9,140.9,214.2,140.9z"/>
		</g>
		<g>
			<path class="st1" d="M253.2,140.9c-2.7,0-4.9-2.2-4.9-4.9c0-8.1-6.6-14.6-14.6-14.6c-5.6,0-10.6,3.1-13.1,8
				c-1,2.1-1.6,4.3-1.6,6.6c0,2.7-2.2,4.9-4.9,4.9c-2.7,0-4.9-2.2-4.9-4.9c0-3.8,0.9-7.6,2.6-11c4.2-8.2,12.5-13.4,21.8-13.4
				c13.5,0,24.4,11,24.4,24.4C258.1,138.7,255.9,140.9,253.2,140.9z"/>
		</g>
		<g>
			<g>
				<path d="M126.3,138.5c-1.3,0-2.4-1.1-2.4-2.4s1.1-2.4,2.4-2.4h19.5c1.3,0,2.4,1.1,2.4,2.4s-1.1,2.4-2.4,2.4H126.3z"/>
			</g>
			<g>
				<path class="st1" d="M145.8,131.1h-19.5c-2.7,0-4.9,2.2-4.9,4.9s2.2,4.9,4.9,4.9h19.5c2.7,0,4.9-2.2,4.9-4.9
					S148.5,131.1,145.8,131.1L145.8,131.1z"/>
			</g>
		</g>
		<g>
			<g>
				<circle cx="111.6" cy="136" r="2.4"/>
			</g>
			<g>
				<path class="st1" d="M111.6,131.1c-2.7,0-4.9,2.2-4.9,4.9s2.2,4.9,4.9,4.9c2.7,0,4.9-2.2,4.9-4.9S114.3,131.1,111.6,131.1
					L111.6,131.1z"/>
			</g>
		</g>
	</g>
	<g>
		<g>
			<path class="st1" d="M624.3,468.1V512v9.8h9.8h63.5v63.5v9.8h9.8h190.4v322.3H126.3V595h190.4h9.8v-9.8v-63.5h63.5h9.8V512v-43.9
				H624.3 M634.1,458.3H389.9V512h-73.2v73.2H116.5V927h791V585.2H707.3V512h-73.2V458.3L634.1,458.3z"/>
		</g>
	</g>
	<g>
		<g>
			<path class="st1" d="M560.8,438.8v4.9v9.8h9.8h14.6v4.9H438.8v-4.9h14.6h9.8v-9.8v-4.9H560.8 M570.6,429H453.4v14.6H429v24.4h166
				v-24.4h-24.4V429L570.6,429z"/>
		</g>
	</g>
	<g>
		<polygon class="st1" points="516.9,165.3 507.1,165.3 507.1,438.8 516.9,438.8 516.9,165.3 		"/>
	</g>
	<g>
		<polygon class="st1" points="634.1,492.5 389.9,492.5 389.9,502.2 634.1,502.2 634.1,492.5 		"/>
	</g>
	<g>
		<g>
			<rect x="104.3" y="631.6" width="815.4" height="4.9"/>
		</g>
		<g>
			<polygon class="st1" points="922.2,629.2 101.8,629.2 101.8,639 922.2,639 922.2,629.2 			"/>
		</g>
	</g>
	<g>
		<rect x="126.3" y="619.4" class="st0" width="771.5" height="9.8"/>
	</g>
	<g>
		<g>
			<rect x="700" y="587.7" width="210" height="4.9"/>
		</g>
		<g>
			<polygon class="st1" points="912.4,585.2 697.5,585.2 697.5,595 912.4,595 912.4,585.2 			"/>
		</g>
	</g>
	<g>
		<g>
			<rect x="700" y="514.4" width="9.8" height="4.9"/>
		</g>
		<g>
			<polygon class="st1" points="712.2,512 697.5,512 697.5,521.8 712.2,521.8 712.2,512 			"/>
		</g>
	</g>
	<g>
		<g>
			<rect x="626.7" y="460.7" width="9.8" height="4.9"/>
		</g>
		<g>
			<polygon class="st1" points="639,458.3 624.3,458.3 624.3,468.1 639,468.1 639,458.3 			"/>
		</g>
	</g>
	<g>
		<g>
			<rect x="387.5" y="460.7" width="9.8" height="4.9"/>
		</g>
		<g>
			<polygon class="st1" points="399.7,458.3 385,458.3 385,468.1 399.7,468.1 399.7,458.3 			"/>
		</g>
	</g>
	<g>
		<g>
			<rect x="314.2" y="514.4" width="9.8" height="4.9"/>
		</g>
		<g>
			<polygon class="st1" points="326.5,512 311.8,512 311.8,521.8 326.5,521.8 326.5,512 			"/>
		</g>
	</g>
	<g>
		<g>
			<rect x="114.1" y="587.7" width="210" height="4.9"/>
		</g>
		<g>
			<polygon class="st1" points="326.5,585.2 111.6,585.2 111.6,595 326.5,595 326.5,585.2 			"/>
		</g>
	</g>
	<g>
		<g>
			<path class="st1" d="M873.3,639v9.8H150.7V639H873.3 M883.1,629.2H140.9v29.3h742.2V629.2L883.1,629.2z"/>
		</g>
	</g>
	<g>
		<g>
			<path class="st1" d="M172.6,668.2c1.3,0,2.4,1.1,2.4,2.4c0,1.3-1.1,2.4-2.4,2.4h-19.5c-1.3,0-2.4-1.1-2.4-2.4
				c0-1.3,1.1-2.4,2.4-2.4H172.6 M172.6,658.5h-19.5c-6.7,0-12.2,5.5-12.2,12.2c0,6.7,5.5,12.2,12.2,12.2h19.5
				c6.7,0,12.2-5.5,12.2-12.2C184.9,663.9,179.4,658.5,172.6,658.5L172.6,658.5z"/>
		</g>
		<g>
			<path class="st1" d="M165.3,682.9v175.8h-4.9V682.9H165.3 M175.1,673.1h-24.4v195.3h24.4V673.1L175.1,673.1z"/>
		</g>
		<g>
			<path class="st1" d="M212.4,868.4L219,885v32.3h-68.4V885l6.6-16.5h11.2l7.3,18.3h18.1l7.3-18.3H212.4 M219,858.7h-24.4
				l-9.8,24.4l-9.8-24.4h-24.4l-9.8,24.4V927h87.9v-43.9L219,858.7L219,858.7z"/>
		</g>
		<g>
			<path class="st1" d="M216.6,668.2c1.3,0,2.4,1.1,2.4,2.4c0,1.3-1.1,2.4-2.4,2.4h-19.5c-1.3,0-2.4-1.1-2.4-2.4
				c0-1.3,1.1-2.4,2.4-2.4H216.6 M216.6,658.5h-19.5c-6.7,0-12.2,5.5-12.2,12.2c0,6.7,5.5,12.2,12.2,12.2h19.5
				c6.7,0,12.2-5.5,12.2-12.2C228.8,663.9,223.3,658.5,216.6,658.5L216.6,658.5z"/>
		</g>
		<g>
			<path class="st1" d="M209.3,682.9v175.8h-4.9V682.9H209.3 M219,673.1h-24.4v195.3H219V673.1L219,673.1z"/>
		</g>
		<g>
			<polygon class="st1" points="228.8,883.1 140.9,883.1 140.9,892.9 228.8,892.9 228.8,883.1 			"/>
		</g>
		<g>
			<rect x="140.9" y="897.7" class="st1" width="87.9" height="4.9"/>
		</g>
		<g>
			<rect x="140.9" y="907.5" class="st1" width="87.9" height="4.9"/>
		</g>
	</g>
	<g>
		<g>
			<path class="st1" d="M377.7,668.2c1.3,0,2.4,1.1,2.4,2.4c0,1.3-1.1,2.4-2.4,2.4h-19.5c-1.3,0-2.4-1.1-2.4-2.4
				c0-1.3,1.1-2.4,2.4-2.4H377.7 M377.7,658.5h-19.5c-6.7,0-12.2,5.5-12.2,12.2c0,6.7,5.5,12.2,12.2,12.2h19.5
				c6.7,0,12.2-5.5,12.2-12.2C389.9,663.9,384.5,658.5,377.7,658.5L377.7,658.5z"/>
		</g>
		<g>
			<path class="st1" d="M370.4,682.9v175.8h-4.9V682.9H370.4 M380.2,673.1h-24.4v195.3h24.4V673.1L380.2,673.1z"/>
		</g>
		<g>
			<path class="st1" d="M417.5,868.4l6.6,16.5v32.3h-68.4V885l6.6-16.5h11.2l7.3,18.3H399l7.3-18.3H417.5 M424.1,858.7h-24.4
				l-9.8,24.4l-9.8-24.4h-24.4l-9.8,24.4V927h87.9v-43.9L424.1,858.7L424.1,858.7z"/>
		</g>
		<g>
			<path class="st1" d="M421.7,668.2c1.3,0,2.4,1.1,2.4,2.4c0,1.3-1.1,2.4-2.4,2.4h-19.5c-1.3,0-2.4-1.1-2.4-2.4
				c0-1.3,1.1-2.4,2.4-2.4H421.7 M421.7,658.5h-19.5c-6.7,0-12.2,5.5-12.2,12.2c0,6.7,5.5,12.2,12.2,12.2h19.5
				c6.7,0,12.2-5.5,12.2-12.2C433.9,663.9,428.4,658.5,421.7,658.5L421.7,658.5z"/>
		</g>
		<g>
			<path class="st1" d="M414.3,682.9v175.8h-4.9V682.9H414.3 M424.1,673.1h-24.4v195.3h24.4V673.1L424.1,673.1z"/>
		</g>
		<g>
			<polygon class="st1" points="433.9,883.1 346,883.1 346,892.9 433.9,892.9 433.9,883.1 			"/>
		</g>
		<g>
			<rect x="346" y="897.7" class="st1" width="87.9" height="4.9"/>
		</g>
		<g>
			<rect x="346" y="907.5" class="st1" width="87.9" height="4.9"/>
		</g>
	</g>
	<g>
		<g>
			<path class="st1" d="M621.9,668.2c1.3,0,2.4,1.1,2.4,2.4c0,1.3-1.1,2.4-2.4,2.4h-19.5c-1.3,0-2.4-1.1-2.4-2.4
				c0-1.3,1.1-2.4,2.4-2.4H621.9 M621.9,658.5h-19.5c-6.7,0-12.2,5.5-12.2,12.2c0,6.7,5.5,12.2,12.2,12.2h19.5
				c6.7,0,12.2-5.5,12.2-12.2C634.1,663.9,628.6,658.5,621.9,658.5L621.9,658.5z"/>
		</g>
		<g>
			<path class="st1" d="M614.5,682.9v175.8h-4.9V682.9H614.5 M624.3,673.1h-24.4v195.3h24.4V673.1L624.3,673.1z"/>
		</g>
		<g>
			<path class="st1" d="M661.6,868.4l6.6,16.5v32.3h-68.4V885l6.6-16.5h11.2l7.3,18.3h18.1l7.3-18.3H661.6 M668.2,858.7h-24.4
				l-9.8,24.4l-9.8-24.4h-24.4l-9.8,24.4V927H678v-43.9L668.2,858.7L668.2,858.7z"/>
		</g>
		<g>
			<path class="st1" d="M665.8,668.2c1.3,0,2.4,1.1,2.4,2.4c0,1.3-1.1,2.4-2.4,2.4h-19.5c-1.3,0-2.4-1.1-2.4-2.4
				c0-1.3,1.1-2.4,2.4-2.4H665.8 M665.8,658.5h-19.5c-6.7,0-12.2,5.5-12.2,12.2c0,6.7,5.5,12.2,12.2,12.2h19.5
				c6.7,0,12.2-5.5,12.2-12.2C678,663.9,672.5,658.5,665.8,658.5L665.8,658.5z"/>
		</g>
		<g>
			<path class="st1" d="M658.5,682.9v175.8h-4.9V682.9H658.5 M668.2,673.1h-24.4v195.3h24.4V673.1L668.2,673.1z"/>
		</g>
		<g>
			<polygon class="st1" points="678,883.1 590.1,883.1 590.1,892.9 678,892.9 678,883.1 			"/>
		</g>
		<g>
			<rect x="590.1" y="897.7" class="st1" width="87.9" height="4.9"/>
		</g>
		<g>
			<rect x="590.1" y="907.5" class="st1" width="87.9" height="4.9"/>
		</g>
	</g>
	<g>
		<g>
			<path class="st1" d="M826.9,668.2c1.3,0,2.4,1.1,2.4,2.4c0,1.3-1.1,2.4-2.4,2.4h-19.5c-1.3,0-2.4-1.1-2.4-2.4
				c0-1.3,1.1-2.4,2.4-2.4H826.9 M826.9,658.5h-19.5c-6.7,0-12.2,5.5-12.2,12.2c0,6.7,5.5,12.2,12.2,12.2h19.5
				c6.7,0,12.2-5.5,12.2-12.2C839.1,663.9,833.7,658.5,826.9,658.5L826.9,658.5z"/>
		</g>
		<g>
			<path class="st1" d="M819.6,682.9v175.8h-4.9V682.9H819.6 M829.4,673.1H805v195.3h24.4V673.1L829.4,673.1z"/>
		</g>
		<g>
			<path class="st1" d="M866.7,868.4l6.6,16.5v32.3H805V885l6.6-16.5h11.2l7.3,18.3h18.1l7.3-18.3H866.7 M873.3,858.7h-24.4
				l-9.8,24.4l-9.8-24.4H805l-9.8,24.4V927h87.9v-43.9L873.3,858.7L873.3,858.7z"/>
		</g>
		<g>
			<path class="st1" d="M870.9,668.2c1.3,0,2.4,1.1,2.4,2.4c0,1.3-1.1,2.4-2.4,2.4h-19.5c-1.3,0-2.4-1.1-2.4-2.4
				c0-1.3,1.1-2.4,2.4-2.4H870.9 M870.9,658.5h-19.5c-6.7,0-12.2,5.5-12.2,12.2c0,6.7,5.5,12.2,12.2,12.2h19.5
				c6.7,0,12.2-5.5,12.2-12.2C883.1,663.9,877.6,658.5,870.9,658.5L870.9,658.5z"/>
		</g>
		<g>
			<path class="st1" d="M863.6,682.9v175.8h-4.9V682.9H863.6 M873.3,673.1h-24.4v195.3h24.4V673.1L873.3,673.1z"/>
		</g>
		<g>
			<polygon class="st1" points="883.1,883.1 795.2,883.1 795.2,892.9 883.1,892.9 883.1,883.1 			"/>
		</g>
		<g>
			<rect x="795.2" y="897.7" class="st1" width="87.9" height="4.9"/>
		</g>
		<g>
			<rect x="795.2" y="907.5" class="st1" width="87.9" height="4.9"/>
		</g>
	</g>
	<g>
		<path class="st1" d="M526.6,772.6v7.9c0,0.7,0,1.5-0.2,2.2c19.9,6.2,34.4,24.8,34.4,46.6v87.9h-97.7v-87.9
			c0-21.9,14.5-40.5,34.4-46.6c-0.1-0.7-0.2-1.5-0.2-2.2v-7.9c-25.3,6.5-43.9,29.4-43.9,56.7V927h117.2v-97.7
			C570.6,802.1,551.9,779.1,526.6,772.6z"/>
	</g>
	<g>
		<path class="st1" d="M751.3,797.7v7.2c0,1.1-0.1,2.1-0.3,3.2c11.7,5.4,19.9,17.3,19.9,31v78.1h-68.4v-78.1
			c0-13.7,8.2-25.6,19.9-31c-0.2-1-0.3-2.1-0.3-3.2v-7.2c-17.1,6-29.3,22.3-29.3,41.4V927h87.9v-87.9
			C780.6,820,768.3,803.7,751.3,797.7z"/>
	</g>
	<g>
		<path class="st1" d="M302,797.7v7.2c0,1.1-0.1,2.1-0.3,3.2c11.7,5.4,19.9,17.3,19.9,31v78.1h-68.4v-78.1c0-13.7,8.2-25.6,19.9-31
			c-0.2-1-0.3-2.1-0.3-3.2v-7.2c-17.1,6-29.3,22.3-29.3,41.4V927h87.9v-87.9C331.3,820,319.1,803.7,302,797.7z"/>
	</g>
	<g>
		<g>
			<path class="st1" d="M296,790.3l-2.7,24.4h-11.8l-2.7-24.4H296 M306.9,780.6h-39.1l4.9,43.9H302L306.9,780.6L306.9,780.6z"/>
		</g>
	</g>
	<g>
		<polygon class="st1" points="311.8,780.6 263,780.6 263,790.3 311.8,790.3 311.8,780.6 		"/>
	</g>
	<g>
		<g>
			<path class="st1" d="M520.6,765.9l-2.7,24.4h-11.8l-2.7-24.4H520.6 M531.5,756.1h-39.1l4.9,43.9h29.3L531.5,756.1L531.5,756.1z"
				/>
		</g>
	</g>
	<g>
		<polygon class="st1" points="536.4,756.1 487.6,756.1 487.6,765.9 536.4,765.9 536.4,756.1 		"/>
	</g>
	<g>
		<g>
			<path class="st1" d="M745.2,790.3l-2.7,24.4h-11.8l-2.7-24.4H745.2 M756.1,780.6h-39.1l4.9,43.9h29.3L756.1,780.6L756.1,780.6z"
				/>
		</g>
	</g>
	<g>
		<polygon class="st1" points="761,780.6 712.2,780.6 712.2,790.3 761,790.3 761,780.6 		"/>
	</g>
	<g>
		<g>
			<path class="st1" d="M464.6,556.1l-8.3-8.3l-5.7,3l1.8-8.8l-4-1.9h16.5l-10.1-9.2l-1.2,1.2c-0.6,0.5-1.1,1.1-1.5,1.7
				c-0.4,0.5-1.1,1.3-1.2,1.4c-4.2,0.2-8.3,0.2-12.7,0.2l-2.4,0c0.3-1.9,0-3.6-0.9-5c-1.3-2.1-3.8-3.3-7.5-3.8l-3.3-0.4l4.4,9.2
				c-2.1-0.1-4.2,0-6.2,0.1c-5.3,0.2-9.9,0.4-14.3-2.4l-2.8-1.7l0,4.8c0,0.8,0,1.6,0,2.3c-0.1,3.1-0.1,6.2-0.2,9.3
				c-0.1,7.5-0.2,15.4-0.6,23c-0.2,5-2.3,9.4-5.9,12.6l-0.6,0.5v4.8l2.8-1.8c0.3-0.2,0.5-0.3,0.8-0.4c0.9-0.4,2-1,2.6-2.1
				c0.6-1,1.2-2,1.8-3c1.5-2.4,3-4.8,4-7.5l9-10.6v26l2.3-0.6c3.5-0.8,5-2.9,5-6.5c-0.1-4.8-0.1-9.5-0.2-14.3c0-3,0-6-0.1-9
				c0-1.9,0-3.8,0-5.7l0-1l1.2,1.7c2.5,3.4,5.5,2.7,7.3,2.2c0.7-0.2,1.3-0.3,1.7-0.3c2.1,0.3,4.1,0.3,6.3,0.2c0.3,0,0.6,0,0.9,0l0,5
				c0,6,0,11.9,0,17.7c0,0.4,0,0.5,0,0.6c-0.1,0-0.4,0.1-1.1,0.1l-13.9-0.7l16.3,10.2l0.7-0.1c2.7-0.5,5.6-3,5.3-8.4
				c-0.1-2.3-0.1-4.6-0.1-6.9l0-17.4H464.6z M412.5,540.1h11.1l-12.3,26.1c0.4-3.9,0.6-7.8,0.8-11.7c0.1-1.7,0.1-3.4,0.2-5.1
				c0.1-2.5,0.1-5,0.1-7.6C412.5,541.3,412.5,540.7,412.5,540.1z M426.1,551.1c0.3-1.2,1.2-2.6,2.3-4.1c0.6-0.9,1.3-1.9,1.8-2.8
				l0.9-1.5l-4.3-2.6h16.6v11H426.1z"/>
		</g>
		<g>
			<path class="st1" d="M438,574c3.1-2.7,3.4-5.2,3.1-6.8c-0.6-3.3-4-6-10-8.2l-4.5-1.6l9.6,18.1L438,574z"/>
		</g>
	</g>
	<g>
		<path class="st1" d="M542.6,578.7c-0.5-0.5-1-1-1.2-1.4c-0.2-0.4-0.3-1.2-0.4-1.9l-0.1-0.6c-0.1-0.7-0.1-1.3-0.1-2l-0.5-9.1
			l-3.1,7.6c-0.8,2.1-1.2,4.1-1.5,6.1l-0.2,1.1c-0.2,1.4-0.6,1.6-3.2,1.6h-0.9c-0.6,0-0.7-0.1-0.7-0.1c-0.1-0.1-0.2-0.5-0.2-1.8
			c0-1.5,0-3,0-4.5c0-2.9,0-5.9,0.1-8.8c0-1.1,0.4-2.2,0.8-3.6c0.2-0.7,0.4-1.4,0.6-2.2l0.4-1.6l-5.5-2.1c4.1-0.9,5.7-0.8,6.6,2.7
			l0.4,1.1l2,0.7l0.9-0.7c1.4-1.1,3.2-2.9,3.2-5.1c0-1.5-0.8-3-2.5-4.3c-1.9-1.5-4.1-2.8-6.1-4c-0.9-0.5-1.8-1-2.6-1.6l-1.8-0.2
			l2.5-2.2l-0.3-0.2h17.7l-10.3-9.3l-1.1,2c-1.3,2.4-3,2.6-6.3,2.5c-1.3,0-2.6,0-3.9,0c0.7-1.3,1.3-2.5,1-2.8
			c-2.2-2.3-4.9-4.2-7.5-6.2c-0.2,0.3-0.4,0.5-0.6,0.8c1.6,2.6,3.3,5.1,5.2,8.2c-2.9,0-5.8-0.1-8.8,0l-9.5,0l-2.7-2.3l-0.5,3.1
			c-1,5.5-3.5,7.9-8.9,7.7l11.2-14.2l-7.6-5.1l-0.9,1.9c-0.9,1.7-1.6,3.4-2.4,5.2c-2.2,5-4.3,9.8-8.7,13.1l-0.9,0.7l0.2,1.1
			c0.4,2,1.2,3.3,2.5,3.9c1.3,0.7,2.9,0.6,4.9-0.2c1.2-0.5,2.4-0.8,3.8-1.2c-0.1,0.2-0.3,0.4-0.4,0.7c-2.4,3.8-4.5,7.1-8.3,9
			l-1.7,0.8l3.2,6.1l2.8-0.7l-2.5,4.8c-1.6,3-3.1,5.8-4.4,8.7c-0.3,0.7-0.3,1.5,0.1,2.5c0.2,0.6,0.9,1.9,2.1,2.3
			c0.6,0.2,1.2,0.3,1.8,0.3c0.8,0,1.6-0.2,2.2-0.6c1.2-0.7,2.1-2.1,2.3-3.7c0.4-2.7,0.5-5.3,0.7-8.1c0.1-1.1,0.1-2.3,0.2-3.4
			l0.3-3.5l0.6-0.1l1.5,17.5l2.4-1.1c2.5-1.2,4-3.2,4.3-5.7c0.3-3.1-1.6-6.5-4.9-8.9l-2.6-1.9l5.6-1.4l4.4,16.5l1.9-0.8
			c2.4-1,3.7-2.5,4-4.3c0.3-2.2-1-4.7-4.4-8l1.4-0.7c3-1.5,3.7-3.4,3.8-4.8c0.2-3.8-4.3-7.4-8-9.7l-1.3-0.8l8.1-9.6
			c1.9,0.7,3.9,0.4,5.5,0.1c1.1-0.2,2-0.3,2.8-0.3c-2.2,4.3-4.6,8-9.1,10.3l-1.7,0.9l3.6,6.1l2.4-0.5c0.7,12.4-0.2,22.7-14.9,25.4
			l0.5,3.6c14-1.6,20.6-8.3,21.6-22c0.1-1.2,0.4-2.4,0.8-3.7c0.2-0.7,0.4-1.5,0.6-2.3l0.4-1.6l-2.3-0.8c1.2-0.2,2.4-0.5,3.6-0.8v19
			c0,5.3,0.1,8.6,2.2,10.4c1.2,1.1,2.8,1.4,5,1.4c1.6,0,3.5-0.2,5.7-0.4c1.4-0.2,5.8-0.6,7.3-5.3l0.3-1l-0.7-0.8
			C543.2,579.3,542.9,579,542.6,578.7z M503.9,563.1l1.3,3.6c-0.4-0.4-0.8-0.8-1.3-1.2l-2.2-1.9L503.9,563.1z M502.2,558.3l-6.6,0.6
			l4.5-5.4L502.2,558.3z M519.4,550.9l7-6.4l-1.6,2l3.2,3.6L519.4,550.9z"/>
	</g>
	<g>
		<path class="st1" d="M619.2,568.2c1.1-0.2,2-0.5,2.6-1.2c1.1-1.2,1.2-2.9,1.1-4c-0.3-7.1-0.4-14.1-0.4-20.8c0-1,0.3-2.2,0.7-3.6
			c0.2-0.8,0.5-1.7,0.7-2.7l0.3-1.1l-4.9-3.7l-1.1,1c-3.3,2.9-6.8,2.6-10.8,2.3c-0.9-0.1-1.9-0.1-2.8-0.2l4.3-3.4l-7.7-4.9l-0.9,1.7
			c-0.5,0.9-0.9,1.9-1.3,2.8c-0.6,1.4-1.3,3.1-2,3.4c-0.6,0.3-2.4-0.4-3.5-0.8c-0.9-0.3-1.8-0.6-2.6-0.8l-2.3-0.6v7.2l-5.9-5l-1,2.2
			c-0.4,1-0.8,2-1.2,3.1c-1.8,4.7-3,7.3-6.9,7l9.4-15.2l-6.9-5.1l-0.9,2.3c-0.4,1.2-0.9,2.3-1.3,3.4c-0.9,2.5-1.7,4.8-2.8,7
			c-1,2.2-2.3,4.3-3.6,6.5c-0.6,1-1.3,2.1-1.9,3.2l-0.6,1l2.8,4.3l6.1-1.9l-8.4,11.7l3.1,4.2l1.8-0.5l-7,16.9l2.4,0.3
			c0.4,0.1,0.9,0.1,1.3,0.1c1.7,0,3.1-0.5,4.2-1.5c2.4-2.3,2.4-6.7,1.7-13l-0.4-3.4l1.5-0.5v17.1l2.5-1c2.2-0.9,3.6-2.2,4.2-4
			c0.8-2.6-0.3-5.8-3.3-10.1l-1.8-2.5l3.2-1l3.9,18.8l0.1-0.1l-1.2,2.4l2.1,0.7c0.8,0.3,1.6,0.4,2.2,0.4c1.5,0,2.6-0.6,3.4-1.1
			c2.6-2,3.7-6.5,3.2-13.3l-0.3-4c0.1-0.1,0.3-0.3,0.4-0.4l0,5.4c0,2.6,0,5.1-0.1,7.5c-0.2,4.5,2.4,7.3,6.8,7.5
			c2.1,0.1,4,0.2,5.8,0.2c2.4,0,4.6-0.1,6.7-0.3c1.6-0.1,3-1,4.2-1.7c0.5-0.3,0.9-0.6,1.4-0.8l2.7-1.3l1.1,3.6l2.1-2
			C629.4,580.3,623.9,573.6,619.2,568.2z M595.9,546v-6.4h3.8L595.9,546z M608.4,539.6h5l-5.5,1l0.7-0.7L608.4,539.6z M611.4,551.8
			l4.1-5v13.4h-1.7C615.2,556.6,614.5,554.7,611.4,551.8z M595.9,550.4l1.1,0.8c0.1-0.1,0.3-0.3,0.4-0.4l4.2,2.5l-5.6,4.4V550.4z
			 M607.9,545.9c-0.7,1.2-1.6,2.6-2.3,2.9c-0.6,0.2-1.8-0.1-3-0.3c-0.7-0.2-1.5-0.4-2.3-0.5C602.7,546.2,605,545.4,607.9,545.9
			C608,545.9,608,545.9,607.9,545.9z M606.6,556.9l3.1,3.3h-8.6L606.6,556.9z M604,581.7l2.2-1.4c1.9-1.2,2.9-2.7,3.2-4.4
			c0.4-2.7-1.1-5.9-4.9-10.5l1.7,0c2.2,0,4.5-0.1,6.7,0.1l-1.4,7.6c-0.1,0.6-0.2,0.9-0.2,1.3c-1,7.9-1,7.9-9.5,7.4
			c-0.5,0-1.1-0.1-1.5-0.2c-0.2-0.1-0.5-0.3-0.6-0.4c0-0.7-0.1-1.3-0.2-2c-0.3-2.8-0.4-4.4,1.4-6l0.9-0.8L604,581.7z M588.6,541.1
			v20.8c-0.1-3.3-2.4-6.9-6.6-9.9l-1-0.7c1.2-1.8,2.3-3.5,3.5-5.3c0.7-1,1.6-2,2.5-3.1c0.5-0.5,1-1.1,1.5-1.7L588.6,541.1z
			 M580.8,559l-5.3,0.6l1-1.6c0.9-1.4,1.7-2.7,2.6-4L580.8,559z M581.7,563.8l0.3,1.2l-0.9-1L581.7,563.8z M584.8,568.1l0.3-0.2
			c2-1.2,3.2-3,3.5-5.1v9.7l-0.8,1.6C587.5,572,586.4,570.1,584.8,568.1z M593.6,567c2-1.4,4.2-1.7,6.6-1.6l1.2,5.3L593.6,567z
			 M617.2,582.1l-3.3-16.5c0.2,0,0.4,0.1,0.6,0.2l5.6,18.1L617.2,582.1z"/>
	</g>
	<g>
		<path class="st1" d="M299.7,812.8c-0.9,1.5-2.1,2.8-3.5,3.8c9.1,3.5,15.6,12.4,15.6,22.8v82.8H263v-82.8
			c0-10.4,6.4-19.2,15.6-22.8c-1.4-1-2.6-2.3-3.5-3.8c-10,4.6-16.9,14.8-16.9,26.6V927h58.6v-87.6
			C316.7,827.6,309.8,817.5,299.7,812.8z"/>
	</g>
	<g>
		<path class="st1" d="M749,812.8c-0.9,1.5-2.1,2.8-3.5,3.8c9.1,3.5,15.6,12.4,15.6,22.8v82.8h-48.8v-82.8
			c0-10.4,6.4-19.2,15.6-22.8c-1.4-1-2.6-2.3-3.5-3.8c-10,4.6-16.9,14.8-16.9,26.6V927h58.6v-87.6C765.9,827.6,759,817.5,749,812.8z
			"/>
	</g>
	<g>
		<path class="st1" d="M524.9,787.4c-0.8,1.6-1.9,3-3.3,4.2c16.9,4.3,29.4,19.7,29.4,37.8v92.8h-78.1v-92.8
			c0-18.2,12.5-33.5,29.4-37.8c-1.4-1.2-2.4-2.5-3.3-4.2c-18,5.5-31,22.2-31,42V927h87.9v-97.7C555.9,809.6,542.9,792.9,524.9,787.4
			z"/>
	</g>
	<g>
		<rect x="267.9" y="839.1" class="st1" width="24.4" height="4.9"/>
	</g>
	<g>
		<rect x="282.5" y="858.7" class="st1" width="24.4" height="4.9"/>
	</g>
	<g>
		<rect x="267.9" y="878.2" class="st1" width="24.4" height="4.9"/>
	</g>
	<g>
		<rect x="282.5" y="897.7" class="st1" width="24.4" height="4.9"/>
	</g>
	<g>
		<rect x="267.9" y="858.7" class="st1" width="9.8" height="4.9"/>
	</g>
	<g>
		<rect x="267.9" y="897.7" class="st1" width="9.8" height="4.9"/>
	</g>
	<g>
		<rect x="297.2" y="839.1" class="st1" width="9.8" height="4.9"/>
	</g>
	<g>
		<rect x="297.2" y="878.2" class="st1" width="9.8" height="4.9"/>
	</g>
	<g>
		<rect x="717.1" y="839.1" class="st1" width="24.4" height="4.9"/>
	</g>
	<g>
		<rect x="731.7" y="858.7" class="st1" width="24.4" height="4.9"/>
	</g>
	<g>
		<rect x="717.1" y="878.2" class="st1" width="24.4" height="4.9"/>
	</g>
	<g>
		<rect x="731.7" y="897.7" class="st1" width="24.4" height="4.9"/>
	</g>
	<g>
		<rect x="717.1" y="858.7" class="st1" width="9.8" height="4.9"/>
	</g>
	<g>
		<rect x="717.1" y="897.7" class="st1" width="9.8" height="4.9"/>
	</g>
	<g>
		<rect x="746.4" y="839.1" class="st1" width="9.8" height="4.9"/>
	</g>
	<g>
		<rect x="746.4" y="878.2" class="st1" width="9.8" height="4.9"/>
	</g>
	<g>
		<rect x="477.8" y="839.1" class="st1" width="42.7" height="4.9"/>
	</g>
	<g>
		<rect x="503.5" y="858.7" class="st1" width="42.7" height="4.9"/>
	</g>
	<g>
		<rect x="477.8" y="878.2" class="st1" width="42.7" height="4.9"/>
	</g>
	<g>
		<rect x="503.5" y="897.7" class="st1" width="42.7" height="4.9"/>
	</g>
	<g>
		<rect x="477.8" y="858.7" class="st1" width="17.1" height="4.9"/>
	</g>
	<g>
		<rect x="503.5" y="819.6" class="st1" width="42.7" height="4.9"/>
	</g>
	<g>
		<rect x="477.8" y="819.6" class="st1" width="17.1" height="4.9"/>
	</g>
	<g>
		<rect x="477.8" y="897.7" class="st1" width="17.1" height="4.9"/>
	</g>
	<g>
		<rect x="529.1" y="839.1" class="st1" width="17.1" height="4.9"/>
	</g>
	<g>
		<rect x="529.1" y="878.2" class="st1" width="17.1" height="4.9"/>
	</g>
	<g>
		<g>
			<path class="st1" d="M409.5,253.2c-2.7,0-4.9-2.2-4.9-4.9c0-16.2-13.1-29.3-29.3-29.3c-11.1,0-21.1,6.2-26.1,16.1
				c-2.1,4.1-3.2,8.6-3.2,13.2c0,2.7-2.2,4.9-4.9,4.9c-2.7,0-4.9-2.2-4.9-4.9c0-6.2,1.4-12.2,4.2-17.7c6.7-13.2,20.1-21.4,34.9-21.4
				c21.5,0,39.1,17.5,39.1,39.1C414.3,251,412.2,253.2,409.5,253.2z"/>
		</g>
		<g>
			<g>
				<path d="M409.5,250.8c-1.3,0-2.4-1.1-2.4-2.4c0-1.3,1.1-2.4,2.4-2.4h48.8c1.3,0,2.4,1.1,2.4,2.4c0,1.3-1.1,2.4-2.4,2.4H409.5z"
					/>
			</g>
			<g>
				<path class="st1" d="M458.3,243.4h-48.8c-2.7,0-4.9,2.2-4.9,4.9s2.2,4.9,4.9,4.9h48.8c2.7,0,4.9-2.2,4.9-4.9
					S461,243.4,458.3,243.4L458.3,243.4z"/>
			</g>
		</g>
		<g>
			<g>
				<path d="M321.6,250.8c-1.3,0-2.4-1.1-2.4-2.4c0-1.3,1.1-2.4,2.4-2.4h19.5c1.3,0,2.4,1.1,2.4,2.4c0,1.3-1.1,2.4-2.4,2.4H321.6z"
					/>
			</g>
			<g>
				<path class="st1" d="M341.1,243.4h-19.5c-2.7,0-4.9,2.2-4.9,4.9s2.2,4.9,4.9,4.9h19.5c2.7,0,4.9-2.2,4.9-4.9
					S343.8,243.4,341.1,243.4L341.1,243.4z"/>
			</g>
		</g>
	</g>
</g>
</svg>
