<?xml version="1.0" encoding="UTF-8"?>
<svg width="1080px" height="1080px" viewBox="0 0 1080 1080" version="1.1" xmlns="http://www.w3.org/2000/svg" xmlns:xlink="http://www.w3.org/1999/xlink">
    <!-- Generator: Sketch 52.5 (67469) - http://www.bohemiancoding.com/sketch -->
    <title>长沙</title>
    <desc>Created with Sketch.</desc>
    <defs>
        <linearGradient x1="50%" y1="0%" x2="50%" y2="100%" id="linearGradient-1">
            <stop stop-color="#68B75C" offset="0%"></stop>
            <stop stop-color="#37802F" offset="100%"></stop>
        </linearGradient>
    </defs>
    <g id="长沙" stroke="none" stroke-width="1" fill="none" fill-rule="evenodd">
        <g id="Group" transform="translate(448.000000, 116.000000)">
            <rect id="Rectangle-28" fill="#F0ECEC" x="0" y="0" width="282" height="696"></rect>
            <rect id="Rectangle-28-Copy" fill="#88CCB8" x="282" y="0" width="76" height="696"></rect>
            <rect id="Rectangle" fill="#D6D4D4" x="27" y="44" width="19" height="642" rx="9.5"></rect>
            <rect id="Rectangle-Copy" fill="#D6D4D4" x="58.1428571" y="44" width="19" height="642" rx="9.5"></rect>
            <rect id="Rectangle-Copy-2" fill="#D6D4D4" x="89.2857143" y="44" width="19" height="642" rx="9.5"></rect>
            <rect id="Rectangle-Copy-3" fill="#D6D4D4" x="120.428571" y="44" width="19" height="642" rx="9.5"></rect>
            <rect id="Rectangle-Copy-4" fill="#D6D4D4" x="151.571429" y="44" width="19" height="642" rx="9.5"></rect>
            <rect id="Rectangle-Copy-5" fill="#D6D4D4" x="182.714286" y="44" width="19" height="642" rx="9.5"></rect>
            <rect id="Rectangle-Copy-6" fill="#D6D4D4" x="213.857143" y="44" width="19" height="642" rx="9.5"></rect>
            <rect id="Rectangle-Copy-7" fill="#D6D4D4" x="245" y="44" width="19" height="642" rx="9.5"></rect>
            <rect id="Rectangle-Copy-8" fill="#4A90E2" x="297" y="44" width="17" height="642" rx="8.5"></rect>
            <rect id="Rectangle-Copy-9" fill="#4A90E2" x="325" y="44" width="17" height="642" rx="8.5"></rect>
        </g>
        <g id="Group-2" transform="translate(318.000000, 128.000000)">
            <polygon id="Path-86" fill="#DBE5F0" points="18.171875 1.6484375 0.74609375 684.490234 72.6445312 684.490234 47.3359375 393.511719 21.5839844 372.664062 20.0742188 0.479003906"></polygon>
            <polygon id="Path-87" fill="#4A90E2" points="19.9960938 0.693359375 26.137207 6.6875 26.137207 83.9555664 68.8950195 127.708496 68.8950195 645.861328 47.3652344 393.365234 19.9960938 373.183594"></polygon>
            <polygon id="Path-88" fill="#236CC3" points="68.7695312 127.887207 88.1020508 149.545898 88.1020508 535.832031 68.7695312 645.751953"></polygon>
            <polygon id="Path-89" fill="#46D9B8" points="72.3300781 429.263672 96.7363281 419.972656 103.119141 656.023437 72.3300781 684.830078 68.5078125 639.873047"></polygon>
        </g>
        <path d="M568,694.796875 L527,694.796875 L527,725 C527,732.179702 521.179702,738 514,738 L257,738 C249.820298,738 244,732.179702 244,725 L244,678 L244.018945,678 C244.006391,677.834979 244,677.668236 244,677.5 C244,673.910149 246.910149,671 250.5,671 C254.089851,671 257,673.910149 257,677.5 C257,677.668236 256.993609,677.834979 256.981055,678 L263.018945,678 C263.006391,677.834979 263,677.668236 263,677.5 C263,673.910149 265.910149,671 269.5,671 C273.089851,671 276,673.910149 276,677.5 C276,677.668236 275.993609,677.834979 275.981055,678 L282.018945,678 C282.006391,677.834979 282,677.668236 282,677.5 C282,673.910149 284.910149,671 288.5,671 C292.089851,671 295,673.910149 295,677.5 C295,677.668236 294.993609,677.834979 294.981055,678 L301.018945,678 C301.006391,677.834979 301,677.668236 301,677.5 C301,673.910149 303.910149,671 307.5,671 C311.089851,671 314,673.910149 314,677.5 C314,677.668236 313.993609,677.834979 313.981055,678 L324.018945,678 C324.006391,677.834979 324,677.668236 324,677.5 C324,673.910149 326.910149,671 330.5,671 C334.089851,671 337,673.910149 337,677.5 C337,677.668236 336.993609,677.834979 336.981055,678 L343.018945,678 C343.006391,677.834979 343,677.668236 343,677.5 C343,673.910149 345.910149,671 349.5,671 C353.089851,671 356,673.910149 356,677.5 C356,677.668236 355.993609,677.834979 355.981055,678 L362.018945,678 C362.006391,677.834979 362,677.668236 362,677.5 C362,673.910149 364.910149,671 368.5,671 C372.089851,671 375,673.910149 375,677.5 C375,677.668236 374.993609,677.834979 374.981055,678 L381.018945,678 C381.006391,677.834979 381,677.668236 381,677.5 C381,673.910149 383.910149,671 387.5,671 C391.089851,671 394,673.910149 394,677.5 C394,677.668236 393.993609,677.834979 393.981055,678 L414.024414,678 L414.024414,671.350586 L400.038086,668.810547 L378.30957,631.076172 C376.502279,626.650391 377.341797,622.956055 380.828125,619.993164 C384.314453,617.030273 386.586589,617.030273 387.644531,619.993164 L411.874023,634.584961 L462.095703,634.584961 L462.095703,580.029297 L444.099609,578.258789 L426.277344,530.146484 C426.047526,526.075521 426.964844,523.139323 429.029297,521.337891 C431.09375,519.536458 432.977214,518.985677 434.679688,519.685547 L460.393555,540.902344 L488.867188,540.902344 L490.349609,494.34375 L475.917969,494.34375 L452.251953,451.78125 C450.584635,446.358073 450.584635,442.812174 452.251953,441.143555 C453.919271,439.474935 456.633138,439.046224 460.393555,439.857422 L488.867188,459.166992 L501.642578,457.742187 L606.342773,457.742187 L631.458984,439.857422 C635.665365,438.846354 638.588542,439.275065 640.228516,441.143555 C641.86849,443.012044 642.377604,445.579102 641.755859,448.844727 C627.888672,477.610352 619.499674,492.776693 616.588867,494.34375 C613.67806,495.910807 610.262695,495.910807 606.342773,494.34375 L606.342773,540.902344 L637.768555,540.902344 L659.129883,519.685547 C662.013997,519.559245 664.169596,520.110026 665.59668,521.337891 C667.023763,522.565755 667.777669,525.501953 667.858398,530.146484 C658.84082,558.820313 652.960612,574.274089 650.217773,576.507813 C647.474935,578.741536 641.222005,579.915365 631.458984,580.029297 L631.458984,634.584961 L682.25,634.584961 L704.496094,619.993164 C707.401693,619.198893 709.92806,619.625651 712.075195,621.273438 C714.222331,622.921224 715.141602,624.59375 714.833008,626.291016 C703.205404,654.676432 695.807943,670.146484 692.640625,672.701172 C690.798198,674.187232 686.735743,675.953508 680.453257,678 L701.018945,678 C701.006391,677.834979 701,677.668236 701,677.5 C701,673.910149 703.910149,671 707.5,671 C711.089851,671 714,673.910149 714,677.5 C714,677.668236 713.993609,677.834979 713.981055,678 L720.018945,678 C720.006391,677.834979 720,677.668236 720,677.5 C720,673.910149 722.910149,671 726.5,671 C730.089851,671 733,673.910149 733,677.5 C733,677.668236 732.993609,677.834979 732.981055,678 L739.018945,678 C739.006391,677.834979 739,677.668236 739,677.5 C739,673.910149 741.910149,671 745.5,671 C749.089851,671 752,673.910149 752,677.5 C752,677.668236 751.993609,677.834979 751.981055,678 L758.018945,678 C758.006391,677.834979 758,677.668236 758,677.5 C758,673.910149 760.910149,671 764.5,671 C768.089851,671 771,673.910149 771,677.5 C771,677.668236 770.993609,677.834979 770.981055,678 L781.018945,678 C781.006391,677.834979 781,677.668236 781,677.5 C781,673.910149 783.910149,671 787.5,671 C791.089851,671 794,673.910149 794,677.5 C794,677.668236 793.993609,677.834979 793.981055,678 L800.018945,678 C800.006391,677.834979 800,677.668236 800,677.5 C800,673.910149 802.910149,671 806.5,671 C810.089851,671 813,673.910149 813,677.5 C813,677.668236 812.993609,677.834979 812.981055,678 L819.018945,678 C819.006391,677.834979 819,677.668236 819,677.5 C819,673.910149 821.910149,671 825.5,671 C829.089851,671 832,673.910149 832,677.5 C832,677.668236 831.993609,677.834979 831.981055,678 L838.018945,678 C838.006391,677.834979 838,677.668236 838,677.5 C838,673.910149 840.910149,671 844.5,671 C848.089851,671 851,673.910149 851,677.5 C851,677.668236 850.993609,677.834979 850.981055,678 L851,678 L851,725 C851,732.179702 845.179702,738 838,738 L581,738 C573.820298,738 568,732.179702 568,725 L568,694.796875 Z" id="Combined-Shape" fill="#B07642"></path>
        <path d="M568,688.796875 L527,688.796875 L527,719 C527,726.179702 521.179702,732 514,732 L257,732 C249.820298,732 244,726.179702 244,719 L244,672 L244.018945,672 C244.006391,671.834979 244,671.668236 244,671.5 C244,667.910149 246.910149,665 250.5,665 C254.089851,665 257,667.910149 257,671.5 C257,671.668236 256.993609,671.834979 256.981055,672 L263.018945,672 C263.006391,671.834979 263,671.668236 263,671.5 C263,667.910149 265.910149,665 269.5,665 C273.089851,665 276,667.910149 276,671.5 C276,671.668236 275.993609,671.834979 275.981055,672 L282.018945,672 C282.006391,671.834979 282,671.668236 282,671.5 C282,667.910149 284.910149,665 288.5,665 C292.089851,665 295,667.910149 295,671.5 C295,671.668236 294.993609,671.834979 294.981055,672 L301.018945,672 C301.006391,671.834979 301,671.668236 301,671.5 C301,667.910149 303.910149,665 307.5,665 C311.089851,665 314,667.910149 314,671.5 C314,671.668236 313.993609,671.834979 313.981055,672 L324.018945,672 C324.006391,671.834979 324,671.668236 324,671.5 C324,667.910149 326.910149,665 330.5,665 C334.089851,665 337,667.910149 337,671.5 C337,671.668236 336.993609,671.834979 336.981055,672 L343.018945,672 C343.006391,671.834979 343,671.668236 343,671.5 C343,667.910149 345.910149,665 349.5,665 C353.089851,665 356,667.910149 356,671.5 C356,671.668236 355.993609,671.834979 355.981055,672 L362.018945,672 C362.006391,671.834979 362,671.668236 362,671.5 C362,667.910149 364.910149,665 368.5,665 C372.089851,665 375,667.910149 375,671.5 C375,671.668236 374.993609,671.834979 374.981055,672 L381.018945,672 C381.006391,671.834979 381,671.668236 381,671.5 C381,667.910149 383.910149,665 387.5,665 C391.089851,665 394,667.910149 394,671.5 C394,671.668236 393.993609,671.834979 393.981055,672 L414.024414,672 L414.024414,665.350586 L400.038086,662.810547 L378.30957,625.076172 C376.502279,620.650391 377.341797,616.956055 380.828125,613.993164 C384.314453,611.030273 386.586589,611.030273 387.644531,613.993164 L411.874023,628.584961 L462.095703,628.584961 L462.095703,574.029297 L444.099609,572.258789 L426.277344,524.146484 C426.047526,520.075521 426.964844,517.139323 429.029297,515.337891 C431.09375,513.536458 432.977214,512.985677 434.679688,513.685547 L460.393555,534.902344 L488.867188,534.902344 L490.349609,488.34375 L475.917969,488.34375 L452.251953,445.78125 C450.584635,440.358073 450.584635,436.812174 452.251953,435.143555 C453.919271,433.474935 456.633138,433.046224 460.393555,433.857422 L488.867188,453.166992 L501.642578,451.742187 L606.342773,451.742187 L631.458984,433.857422 C635.665365,432.846354 638.588542,433.275065 640.228516,435.143555 C641.86849,437.012044 642.377604,439.579102 641.755859,442.844727 C627.888672,471.610352 619.499674,486.776693 616.588867,488.34375 C613.67806,489.910807 610.262695,489.910807 606.342773,488.34375 L606.342773,534.902344 L637.768555,534.902344 L659.129883,513.685547 C662.013997,513.559245 664.169596,514.110026 665.59668,515.337891 C667.023763,516.565755 667.777669,519.501953 667.858398,524.146484 C658.84082,552.820313 652.960612,568.274089 650.217773,570.507813 C647.474935,572.741536 641.222005,573.915365 631.458984,574.029297 L631.458984,628.584961 L682.25,628.584961 L704.496094,613.993164 C707.401693,613.198893 709.92806,613.625651 712.075195,615.273438 C714.222331,616.921224 715.141602,618.59375 714.833008,620.291016 C703.205404,648.676432 695.807943,664.146484 692.640625,666.701172 C690.798198,668.187232 686.735743,669.953508 680.453257,672 L701.018945,672 C701.006391,671.834979 701,671.668236 701,671.5 C701,667.910149 703.910149,665 707.5,665 C711.089851,665 714,667.910149 714,671.5 C714,671.668236 713.993609,671.834979 713.981055,672 L720.018945,672 C720.006391,671.834979 720,671.668236 720,671.5 C720,667.910149 722.910149,665 726.5,665 C730.089851,665 733,667.910149 733,671.5 C733,671.668236 732.993609,671.834979 732.981055,672 L739.018945,672 C739.006391,671.834979 739,671.668236 739,671.5 C739,667.910149 741.910149,665 745.5,665 C749.089851,665 752,667.910149 752,671.5 C752,671.668236 751.993609,671.834979 751.981055,672 L758.018945,672 C758.006391,671.834979 758,671.668236 758,671.5 C758,667.910149 760.910149,665 764.5,665 C768.089851,665 771,667.910149 771,671.5 C771,671.668236 770.993609,671.834979 770.981055,672 L781.018945,672 C781.006391,671.834979 781,671.668236 781,671.5 C781,667.910149 783.910149,665 787.5,665 C791.089851,665 794,667.910149 794,671.5 C794,671.668236 793.993609,671.834979 793.981055,672 L800.018945,672 C800.006391,671.834979 800,671.668236 800,671.5 C800,667.910149 802.910149,665 806.5,665 C810.089851,665 813,667.910149 813,671.5 C813,671.668236 812.993609,671.834979 812.981055,672 L819.018945,672 C819.006391,671.834979 819,671.668236 819,671.5 C819,667.910149 821.910149,665 825.5,665 C829.089851,665 832,667.910149 832,671.5 C832,671.668236 831.993609,671.834979 831.981055,672 L838.018945,672 C838.006391,671.834979 838,671.668236 838,671.5 C838,667.910149 840.910149,665 844.5,665 C848.089851,665 851,667.910149 851,671.5 C851,671.668236 850.993609,671.834979 850.981055,672 L851,672 L851,719 C851,726.179702 845.179702,732 838,732 L581,732 C573.820298,732 568,726.179702 568,719 L568,688.796875 Z" id="Combined-Shape-Copy" fill="#DAAE3B"></path>
        <polygon id="Path-90" fill="#EEDE1F" points="150.515625 934.488281 199.796875 835.308594 898.410156 835.308594 945.503906 934.488281"></polygon>
        <polygon id="Path-91" fill="#F2E877" points="200.328125 835.341797 224.445312 781.804688 871.800781 781.804688 898.392578 835.341797"></polygon>
        <path d="M331,743 L356,743 C363.179702,743 369,748.820298 369,756 L369,777 C369,784.179702 363.179702,790 356,790 L331,790 C323.820298,790 318,784.179702 318,777 L318,756 C318,748.820298 323.820298,743 331,743 Z M412,743 L437,743 C444.179702,743 450,748.820298 450,756 L450,777 C450,784.179702 444.179702,790 437,790 L412,790 C404.820298,790 399,784.179702 399,777 L399,756 C399,748.820298 404.820298,743 412,743 Z M493,743 L518,743 C525.179702,743 531,748.820298 531,756 L531,777 C531,784.179702 525.179702,790 518,790 L493,790 C485.820298,790 480,784.179702 480,777 L480,756 C480,748.820298 485.820298,743 493,743 Z M574,743 L599,743 C606.179702,743 612,748.820298 612,756 L612,777 C612,784.179702 606.179702,790 599,790 L574,790 C566.820298,790 561,784.179702 561,777 L561,756 C561,748.820298 566.820298,743 574,743 Z M656,743 L681,743 C688.179702,743 694,748.820298 694,756 L694,777 C694,784.179702 688.179702,790 681,790 L656,790 C648.820298,790 643,784.179702 643,777 L643,756 C643,748.820298 648.820298,743 656,743 Z M737,743 L762,743 C769.179702,743 775,748.820298 775,756 L775,777 C775,784.179702 769.179702,790 762,790 L737,790 C729.820298,790 724,784.179702 724,777 L724,756 C724,748.820298 729.820298,743 737,743 Z M818,743 L847.32401,743 C852.576817,743 857.313471,746.161166 859.328967,751.011915 L879.808594,800.300781 L816.226695,791.545862 C809.792941,790.659965 805,785.161836 805,778.667376 L805,756 C805,748.820298 810.820298,743 818,743 Z M279.096818,742.999993 C286.27652,742.999994 292.096817,748.820293 292.096817,755.999995 L292.096811,778.652916 C292.096811,785.153619 287.294898,790.655019 280.853844,791.53363 L216.392578,800.32666 L237.711711,750.85519 C239.766046,746.088065 244.459411,743 249.650342,742.999999 L279.096815,742.999996 Z" id="Combined-Shape" fill="#F2E877"></path>
        <path d="M501.125,418.248047 L501.125,449.447266 L593.301996,449.447266 L593.301758,418.248047 C593.170247,413.717448 591.556641,411.452148 588.460938,411.452148 C585.365234,411.452148 583.84375,413.717448 583.896484,418.248047 L583.896484,439.526367 L566.835938,439.526367 L566.835938,413.230469 C569.936849,409.748698 571.487305,403.70931 571.487305,395.112305 C571.487305,386.515299 565.304688,379.655273 552.939453,374.532227 L552.939453,357.170898 C552.80013,353.346029 551.569336,351.433594 549.24707,351.433594 C546.924805,351.433594 545.042643,352.80013 543.600586,355.533203 L543.600586,374.532227 C531.047201,378.515299 524.770508,385.375326 524.770508,395.112305 C524.770508,404.849284 526.033529,410.888672 528.55957,413.230469 L528.55957,439.526367 L510.989258,439.526367 L510.989258,418.248047 C510.328451,413.717448 508.736654,411.452148 506.213867,411.452148 C503.691081,411.452148 501.994792,413.717448 501.125,418.248047 Z" id="Path-93" fill="#B07642"></path>
        <path d="M500.125,413.248047 L500.125,444.447266 L592.301996,444.447266 L592.301758,413.248047 C592.170247,408.717448 590.556641,406.452148 587.460938,406.452148 C584.365234,406.452148 582.84375,408.717448 582.896484,413.248047 L582.896484,434.526367 L565.835938,434.526367 L565.835938,408.230469 C568.936849,404.748698 570.487305,398.70931 570.487305,390.112305 C570.487305,381.515299 564.304688,374.655273 551.939453,369.532227 L551.939453,352.170898 C551.80013,348.346029 550.569336,346.433594 548.24707,346.433594 C545.924805,346.433594 544.042643,347.80013 542.600586,350.533203 L542.600586,369.532227 C530.047201,373.515299 523.770508,380.375326 523.770508,390.112305 C523.770508,399.849284 525.033529,405.888672 527.55957,408.230469 L527.55957,434.526367 L509.989258,434.526367 L509.989258,413.248047 C509.328451,408.717448 507.736654,406.452148 505.213867,406.452148 C502.691081,406.452148 500.994792,408.717448 500.125,413.248047 Z" id="Path-93-Copy" fill="#DAAE3B"></path>
        <rect id="Rectangle-30" fill="#B07642" x="612" y="526" width="23" height="9" rx="4.5"></rect>
        <rect id="Rectangle-30-Copy-2" fill="#E0C57F" x="612" y="523" width="23" height="9" rx="4.5"></rect>
        <rect id="Rectangle-30-Copy" fill="#B07642" x="460" y="526" width="23" height="9" rx="4.5"></rect>
        <rect id="Rectangle-30-Copy-3" fill="#E0C57F" x="460" y="523" width="23" height="9" rx="4.5"></rect>
        <g id="Group-5" transform="translate(106.000000, 703.000000)">
            <circle id="Oval-2" fill="#336D2C" cx="85" cy="97" r="56"></circle>
            <path d="M85,126 L85,126 C87.209139,126 89,127.790861 89,130 L89,227 L81,227 L81,130 C81,127.790861 82.790861,126 85,126 Z" id="Rectangle-6-Copy" fill="#6E5B21"></path>
            <circle id="Combined-Shape" fill="url(#linearGradient-1)" cx="65.5" cy="65.5" r="65.5"></circle>
            <path d="M67,53 L67,53 C69.209139,53 71,54.790861 71,57 L71,227 L63,227 L63,57 C63,54.790861 64.790861,53 67,53 Z" id="Rectangle-6" fill="#6E5B21"></path>
            <path d="M66.0415088,80.1408685 L105.784859,80.1408685 C107.441713,80.1408685 108.784859,81.4840142 108.784859,83.1408685 L108.784859,84.1408685 C108.784859,85.7977227 107.441713,87.1408685 105.784859,87.1408685 L66.0415088,87.1408685 C64.3846545,87.1408685 63.0415088,85.7977227 63.0415088,84.1408685 L63.0415088,83.1408685 C63.0415088,81.4840142 64.3846545,80.1408685 66.0415088,80.1408685 Z" id="Rectangle-7" fill="#6E5B21" transform="translate(85.913184, 83.640868) rotate(-36.000000) translate(-85.913184, -83.640868) "></path>
        </g>
        <rect id="Rectangle" fill="#63577E" x="78" y="930" width="898" height="31"></rect>
        <g id="Group-5-Copy" transform="translate(821.000000, 703.000000)">
            <circle id="Oval-2" fill="#336D2C" cx="85" cy="97" r="56"></circle>
            <path d="M85,126 L85,126 C87.209139,126 89,127.790861 89,130 L89,227 L81,227 L81,130 C81,127.790861 82.790861,126 85,126 Z" id="Rectangle-6-Copy" fill="#6E5B21"></path>
            <circle id="Combined-Shape" fill="url(#linearGradient-1)" cx="65.5" cy="65.5" r="65.5"></circle>
            <path d="M67,53 L67,53 C69.209139,53 71,54.790861 71,57 L71,227 L63,227 L63,57 C63,54.790861 64.790861,53 67,53 Z" id="Rectangle-6" fill="#6E5B21"></path>
            <path d="M66.0415088,80.1408685 L105.784859,80.1408685 C107.441713,80.1408685 108.784859,81.4840142 108.784859,83.1408685 L108.784859,84.1408685 C108.784859,85.7977227 107.441713,87.1408685 105.784859,87.1408685 L66.0415088,87.1408685 C64.3846545,87.1408685 63.0415088,85.7977227 63.0415088,84.1408685 L63.0415088,83.1408685 C63.0415088,81.4840142 64.3846545,80.1408685 66.0415088,80.1408685 Z" id="Rectangle-7" fill="#6E5B21" transform="translate(85.913184, 83.640868) rotate(-36.000000) translate(-85.913184, -83.640868) "></path>
        </g>
    </g>
</svg>